<?xml version="1.0" encoding="UTF-8" standalone="no"?>
<!-- Created with Inkscape (http://www.inkscape.org/) -->

<svg
   version="1.1"
   id="svg1"
   width="939"
   height="266"
   viewBox="0 0 939 266"
   xmlns="http://www.w3.org/2000/svg"
   xmlns:svg="http://www.w3.org/2000/svg">
  <defs
     id="defs1" />
  <g
     id="g1">
    <g
       id="g2"
       transform="translate(-4.0420183,2.0805018)">
      <path
         style="fill:#f2ce95"
         d="m 222.70294,250.46343 c -5.80514,-2.14028 -12.14368,-7.44313 -15.11453,-12.6449 -2.92472,-5.121 -8.09201,-23.96872 -17.69128,-64.52902 -4.88827,-20.65471 -5.26264,-24.60301 -3.04185,-32.08122 4.00452,-13.4847 15.70749,-20.66904 33.721,-20.70102 7.73061,-0.0137 14.52259,2.77587 21.68455,8.90624 4.63624,3.96845 6.06875,3.58834 6.12024,-1.624 0.0389,-3.93952 5.64841,-12.73502 9.92837,-15.56737 8.50068,-5.62548 21.77232,-7.15948 29.19215,-3.37417 l 4.03491,2.05846 4.48564,-4.13472 c 6.18558,-5.70167 10.43042,-7.322371 19.36486,-7.393617 10.02683,-0.07996 16.2196,2.180397 23.32554,8.513827 3.12095,2.78166 5.67697,4.45907 5.68004,3.72758 0.0274,-6.52637 6.16474,-15.345745 13.1639,-18.91645 5.75136,-2.934124 14.64145,-3.532244 22.17821,-1.492138 6.20819,1.680477 6.3779,1.673055 9.95117,-0.435225 2.61012,-1.540005 9.4961,-3.088966 24.4182,-5.492727 11.43062,-1.841327 26.18294,-4.28634 32.78294,-5.433362 10.81417,-1.879408 12.52799,-1.948103 17.34299,-0.695157 5.10234,1.32772 5.53542,1.28278 9.61586,-0.99782 4.54723,-2.541495 7.62111,-3.05 47.98917,-7.93874 18.71896,-2.266943 22.72169,-2.484859 27.20663,-1.481174 4.78001,1.06972 5.51282,0.991376 8.05197,-0.860832 4.04661,-2.951836 14.7578,-5.43068 20.24199,-4.684518 6.11454,0.831925 14.63694,5.118562 17.27774,8.690438 2.68912,3.637223 3.23201,3.629569 4.76325,-0.06716 1.75602,-4.239426 9.12679,-10.686089 13.6557,-11.943634 14.17682,-3.936482 29.08486,2.313653 34.91524,14.63807 2.42648,5.129154 2.65986,6.673195 2.6009,17.207601 -0.10268,18.343388 -5.41263,34.615118 -15.48877,47.463488 l -4.61965,5.89065 0.21996,12.10935 c 0.25255,13.90344 -1.10491,18.25296 -7.73774,24.79303 -5.80077,5.71964 -9.88005,7.31632 -18.6921,7.31632 -7.29843,0 -7.93037,-0.18774 -13.5,-4.01062 -9.84237,-6.75562 -15.34314,-17.41736 -15.34314,-29.7385 v -5.88611 l -7.88931,-7.81544 c -4.33912,-4.29849 -9.10688,-9.89306 -10.59502,-12.43238 -1.89923,-3.24079 -3.34804,-4.61238 -4.86069,-4.60163 -4.68281,0.0333 -4.72048,0.34741 -2.56465,21.38813 2.6071,25.44502 1.82663,32.0102 -4.89926,41.21147 -5.73654,7.84778 -16.98052,11.23725 -27.54577,8.30359 -7.38861,-2.05159 -17.37839,-13.7357 -19.59507,-22.91851 -0.59745,-2.475 -1.64269,-12.6 -2.32276,-22.5 l -1.23648,-18 -5.99549,-0.62662 c -3.29753,-0.34464 -6.74664,-0.94134 -7.66471,-1.32599 -0.96272,-0.40336 -2.75034,0.009 -4.22358,0.97433 -1.40491,0.92052 -4.47876,2.25248 -6.83079,2.95989 -4.25611,1.2801 -4.2751,1.30694 -3.99797,5.6523 0.15314,2.40135 1.16383,9.76609 2.24597,16.36609 2.37526,14.48676 2.51979,26.30447 0.40864,33.41347 -1.92098,6.46864 -8.17494,13.61371 -14.30334,16.34138 -14.05742,6.25677 -31.13788,-2.49445 -36.60532,-18.75485 -1.33367,-3.96638 -4.44828,-31.41055 -4.5112,-39.75 -0.009,-1.18218 -0.80043,-1.75 -2.4394,-1.75 h -2.42621 l 0.12596,16.25 c 0.11861,15.30301 -0.0345,16.71621 -2.6278,24.25 -6.48681,18.84499 -19.99016,32.36279 -38.01672,38.05738 -15.19325,4.79954 -28.91959,4.11415 -42.55454,-2.12486 -4.21844,-1.93025 -5.60554,-2.19891 -6.23469,-1.20755 -0.44505,0.70127 -0.81606,1.56386 -0.82449,1.91688 -0.0332,1.39248 -9.60247,11.20372 -13.05012,13.38013 -5.1305,3.23874 -13.32291,5.47802 -20.04135,5.47802 -6.88903,0 -17.01938,-2.98768 -22.25161,-6.56252 -2.10527,-1.4384 -3.96246,-2.46277 -4.12708,-2.27637 -0.16462,0.18639 -1.23489,2.19479 -2.37838,4.4631 -5.49676,10.90381 -21.46561,17.2473 -32.85083,13.04971 z m 428.53287,-94.19412 c -3.74185,-2.03258 -7.24617,-9.64374 -6.5149,-14.14998 0.82041,-5.05559 2.87234,-7.71223 9.41364,-12.18784 10.58215,-7.2404 24.912,-21.7271 31.81616,-32.164416 7.50186,-11.34088 9.61114,-16.504332 9.6754,-23.685061 0.0492,-5.493549 -2.1448,-10.2925 -4.70547,-10.2925 -1.04225,0 -1.39263,1.264239 -1.31645,4.75 0.3107,14.215172 -14.24579,20.060746 -26.71719,10.72905 -4.46025,-3.337371 -9.38287,-12.24673 -10.6073,-19.197958 -2.81307,-15.970012 8.49794,-34.863152 26.08627,-43.572756 6.109,-3.025126 7.10833,-3.208336 17.5,-3.208336 9.89078,0 11.6134,0.277577 16.7972,2.706655 3.17689,1.488661 7.70509,4.091904 10.06266,5.784986 7.94523,5.705831 16.37598,19.458714 19.1556,31.248091 1.89945,8.056228 1.89131,23.498615 -0.0167,31.591905 -6.18445,26.23359 -29.81272,52.18668 -60.57761,66.53795 -14.19667,6.6225 -24.15109,8.31524 -30.05136,5.11021 z"
         id="path7" />
      <path
         style="fill:#e8ab62"
         d="m 221.387,248.71284 c -5.41581,-2.44645 -11.47946,-8.08694 -14.05398,-13.07321 -3.1642,-6.12834 -20.94602,-78.75261 -20.94602,-85.54743 0,-10.19038 6.56303,-21.00874 15.26127,-25.15635 5.62513,-2.68225 17.89199,-4.27636 23.97504,-3.11562 5.95961,1.13718 8.87393,2.69229 15.7566,8.40783 3.0211,2.5088 5.80603,4.56145 6.18873,4.56145 0.3827,0 1.00752,-2.1375 1.3885,-4.75 0.93298,-6.39787 3.47994,-11.15907 8.29786,-15.51177 7.37926,-6.66672 21.78461,-8.82436 30.53429,-4.57344 l 4.45579,2.16479 4.40508,-4.53249 c 5.43225,-5.58937 10.05579,-7.27958 19.73684,-7.21511 9.54881,0.0636 15.9234,2.74102 22.5543,9.47315 2.67878,2.71968 5.22493,4.94487 5.65811,4.94487 0.43318,0 0.78759,-1.06842 0.78759,-2.37427 0,-3.64019 2.8126,-10.79566 5.2838,-13.442417 6.68987,-7.165102 17.9211,-9.778124 29.06389,-6.761911 6.20304,1.679083 6.38053,1.671506 9.93219,-0.424028 2.58052,-1.522543 9.57435,-3.099532 24.41821,-5.50589 11.44105,-1.854724 26.17514,-4.306069 32.74241,-5.447433 11.04603,-1.919751 12.33122,-1.96162 17.15635,-0.558918 5.09336,1.48068 5.33308,1.455467 10.20783,-1.073645 5.30525,-2.752462 7.4642,-3.114167 47.64334,-7.982026 18.78752,-2.27618 22.71095,-2.488353 27.24613,-1.473424 4.82776,1.080406 5.5539,1.00353 8.17934,-0.865948 3.07712,-2.191103 12.84756,-5.090087 17.15511,-5.090087 6.34992,0 13.41828,3.140682 18.2246,8.097735 2.61426,2.696245 4.9804,4.902265 5.2581,4.902265 0.27769,0 1.22923,-1.810278 2.11452,-4.022839 6.04699,-15.112921 29.64202,-17.595111 42.58673,-4.480112 5.38774,5.458605 7.18684,11.736899 7.02154,24.502951 -0.22358,17.267317 -5.21509,32.273677 -15.05858,45.271747 l -5.12827,6.77176 0.20396,12.22824 c 0.16464,9.87152 -0.13877,12.99917 -1.57431,16.22825 -3.81001,8.57024 -13.86046,15.47085 -22.56087,15.49023 -7.20908,0.0161 -12.04836,-2.03313 -18.15687,-7.68853 -7.24212,-6.70493 -9.99246,-12.81469 -10.68502,-23.7363 l -0.51144,-8.0654 -7.23878,-7.1817 c -3.98132,-3.94994 -8.90198,-9.68744 -10.93479,-12.75 -3.85923,-5.81417 -6.3912,-6.9202 -9.88566,-4.3183 -1.56895,1.16821 -1.54648,2.52596 0.3433,20.75 2.18443,21.06554 1.94666,27.60192 -1.28198,35.24165 -2.21311,5.23673 -8.16124,11.1904 -13.3431,13.35552 -8.41938,3.51785 -18.82189,1.08462 -25.92168,-6.06328 -8.96319,-9.02394 -10.46974,-14.339 -12.05614,-42.53389 -0.38683,-6.875 -1.15004,-13.0625 -1.69603,-13.75 -0.546,-0.6875 -2.89547,-1.25 -5.22105,-1.25 -2.32558,0 -5.63791,-0.49138 -7.36073,-1.09196 -2.62464,-0.91495 -3.66194,-0.76768 -6.39922,0.90852 -1.79676,1.10027 -5.17933,2.50899 -7.51683,3.13051 -2.3375,0.62151 -4.24883,1.67518 -4.24741,2.34148 10e-4,0.6663 1.12642,8.38158 2.5,17.14508 4.07828,26.01961 3.11394,36.98127 -3.98273,45.27214 -11.55214,13.49607 -33.54772,10.01318 -41.99113,-6.64907 -2.952,-5.8255 -4.2068,-12.79311 -5.58773,-31.02751 -0.60275,-7.95895 -1.31261,-14.82145 -1.57747,-15.25 -0.26486,-0.42855 -1.87076,-0.77919 -3.56867,-0.77919 h -3.08711 l 0.67412,12.25 c 1.11766,20.30985 -2.38644,33.71968 -12.32758,47.17651 -7.10007,9.61102 -15.84622,15.58648 -28.55429,19.50859 -14.2968,4.41244 -28.18974,3.56144 -41.5,-2.54206 -6.19382,-2.84021 -4.89293,-3.47011 -11.04071,5.34607 -6.12306,8.78073 -17.3323,14.26089 -29.16956,14.26089 -6.70678,0 -16.90943,-3.00401 -21.98667,-6.47363 -4.55916,-3.11557 -5.43071,-3.14606 -6.16618,-0.21571 -2.12516,8.46731 -14.26119,16.70779 -24.5466,16.66738 -3.43566,-0.0135 -7.32468,-0.80543 -10.09028,-2.05471 z m -5.44635,-21.2011 c -0.88339,-1.34822 -2.23005,-6.22477 -2.99259,-10.83677 -0.76254,-4.612 -2.55073,-13.70896 -3.97375,-20.21546 -3.13171,-14.31919 -3.21072,-16.79958 -0.58731,-18.43792 3.73438,-2.33216 2.37514,-9.11925 -2.39521,-11.96001 -1.62282,-0.96639 -5.60479,-12.68781 -5.60479,-16.49836 0,-4.40641 2.34847,-8.99447 6.44506,-12.59133 4.4442,-3.90205 5.88218,-3.70525 6.55494,0.89711 0.41149,2.81498 0.97575,3.47546 3.18739,3.73089 1.98195,0.22891 3.12775,-0.36171 4.36501,-2.25 1.54782,-2.36228 1.55287,-2.75077 0.0653,-5.02111 -1.87817,-2.86645 -8.24841,-4.9014 -12.33022,-3.93885 -5.09102,1.20053 -10.02612,4.58984 -12.12762,8.32896 -3.58292,6.37494 -3.59891,10.39256 -0.0939,23.57062 1.75545,6.6 6.19263,23.7889 9.8604,38.19754 4.22907,16.61369 7.35022,26.95064 8.53167,28.25613 2.43741,2.6933 3.1456,1.89728 1.09558,-1.23144 z M 322.187,192.58951 c 2.86473,-2.86473 -0.31145,-8.22693 -3.63382,-6.13483 -2.30699,1.45272 -2.57046,3.78769 -0.6447,5.71346 1.93663,1.93662 2.68916,2.01074 4.27852,0.42137 z m 106.79594,-9.32621 c 0.34872,-1.38942 -0.13432,-5.55192 -1.07343,-9.25 -0.9391,-3.69808 -2.31731,-14.82379 -3.06269,-24.72379 -1.46022,-19.39439 -2.44154,-24.91029 -4.86243,-27.33118 -2.29637,-2.29637 -2.67562,-1.14455 -1.61332,4.89977 0.52501,2.98728 1.86911,16.14268 2.98689,29.23423 1.95468,22.89362 3.33744,29.69718 6.03567,29.69718 0.5254,0 1.24059,-1.13679 1.58931,-2.52621 z m -180.00687,-2.96937 c 1.12615,-1.71873 1.43767,-3.54837 1.00071,-5.87753 -0.5416,-2.88697 -0.32305,-3.46338 1.49324,-3.93835 3.28303,-0.85853 1.69825,-3.15173 -2.41835,-3.49938 -2.83765,-0.23965 -3.81795,0.10394 -4.27977,1.5 -0.32946,0.99596 -1.22585,3.22885 -1.99196,4.96197 -1.70988,3.86813 -1.77381,6.56801 -0.19294,8.14887 1.93457,1.93457 4.63084,1.38781 6.38907,-1.29558 z m 107.51305,-1.77435 c 6.12561,-4.09218 7.12468,-7.45722 6.45156,-21.73007 -0.32422,-6.875 -1.77045,-18.67676 -3.21384,-26.22614 -2.13855,-11.18533 -2.39023,-14.00821 -1.35964,-15.25 0.69558,-0.83812 1.86876,-1.52386 2.60706,-1.52386 1.87798,0 3.41274,-3.25335 3.41274,-7.23426 0,-1.85115 0.5325,-3.89824 1.18333,-4.54907 0.65084,-0.65083 0.89679,-1.46988 0.54658,-1.8201 -1.23381,-1.2338 -5.86784,0.70292 -9.37729,3.9191 -4.84927,4.44402 -5.15789,8.60013 -1.98147,26.68433 5.90696,33.62991 5.46955,40.63856 -2.8908,46.31957 -1.90835,1.29675 -3.17211,2.65534 -2.80837,3.01908 1.25666,1.25666 4.04463,0.65308 7.43014,-1.60858 z m -86.88032,-5.83665 c -0.15301,-2.96638 -1.58505,-9.66842 -3.18231,-14.89342 -5.22105,-17.07922 -6.36532,-23.12168 -5.01833,-26.5 1.18541,-2.97307 1.20552,-2.9798 2.24031,-0.75 0.57429,1.2375 1.90528,2.25 2.95777,2.25 2.79722,0 2.05682,-5.22391 -0.8448,-5.96045 -3.1177,-0.79139 -1.36631,-4.59891 3.0937,-6.72575 4.14956,-1.97878 4.55232,-3.3138 0.99974,-3.3138 -6.88421,0 -13.46788,6.26563 -13.46788,12.81727 0,4.02861 3.51199,22.20818 6.57639,34.04221 1.33298,5.14771 2.42361,10.12021 2.42361,11.05 0,2.05181 2.0354,4.25412 3.4625,3.74644 0.59172,-0.2105 0.91797,-2.68648 0.7593,-5.7625 z m 47.33228,-7.3356 c 1.89289,-2.88893 1.59038,-6.44979 -0.66816,-7.86484 -1.63859,-1.02663 -3.02593,-0.68132 -6.08795,1.51529 -0.93612,0.67155 -1.92306,0.99998 -2.19319,0.72984 -0.80704,-0.80704 -4.5935,-28.0621 -4.59936,-33.10632 -0.008,-6.596 0.52643,-7.47174 7.20218,-11.80956 5.66789,-3.68292 5.84712,-3.92257 3.76645,-5.03612 -2.79946,-1.49822 -8.02255,-0.52239 -11.39258,2.12847 -5.88864,4.632 -6.80455,11.10199 -4.05527,28.64619 3.02308,19.2914 4.56381,24.72456 6.79151,23.94933 0.65026,-0.22629 2.25548,0.42136 3.56715,1.43923 3.24477,2.51797 5.75886,2.32406 7.66922,-0.59151 z m 190.46483,-17.77625 c 0.15552,-19.35805 -0.52489,-27.73149 -2.62316,-32.28157 l -1.84461,-4 -0.35675,5.5 c -0.37872,5.8385 1.47052,39.12965 2.49737,44.95921 1.1404,6.47425 2.21376,-0.065 2.32715,-14.17764 z m 81.20843,6.96843 c 0.47245,-19.22241 -0.63762,-23.75 -5.82297,-23.75 h -2.54953 l 2.07258,2.63486 c 1.84128,2.34081 2.07258,4.00567 2.07258,14.91821 0,13.08651 0.39837,15.44693 2.60699,15.44693 1.0739,0 1.44509,-2.11899 1.62035,-9.25 z M 316.25683,128.24559 c 3.41903,-2.87692 4.5585,-5.53118 3.63017,-8.45608 -0.66516,-2.09573 -5.5,-2.92994 -5.5,-0.94897 0,0.57806 -1.60615,1.72212 -3.56922,2.54234 -1.96307,0.82022 -3.39629,1.80976 -3.18493,2.19897 0.21137,0.38922 0.96154,2.17016 1.66705,3.95766 1.54533,3.91528 2.97105,4.05998 6.95693,0.70608 z M 573.387,121.63487 c 0,-0.57014 0.93531,-2.35014 2.07848,-3.95556 2.78541,-3.91176 2.05339,-5.3898 -2.66936,-5.3898 H 568.887 l -2.70028,-8 c -2.27406,-6.737282 -2.63464,-9.249591 -2.28442,-15.916869 0.38374,-7.305654 0.66526,-8.174205 3.64644,-11.25 l 3.2306,-3.333128 -2.94617,0.0037 c -7.6303,0.0097 -12.21548,6.793546 -11.08617,16.402221 0.76071,6.472411 4.89265,18.735746 7.58822,22.521316 1.12848,1.58481 2.05178,3.33997 2.05178,3.90037 0,1.67434 5.10867,7.22322 6.09115,6.61602 0.49987,-0.30894 0.90885,-1.02818 0.90885,-1.59831 z m -182.56455,-5.09536 c 1.56574,-5.2516 1.70598,-5.40062 2.82313,-3 1.28376,2.75866 3.84913,2.89345 6.17409,0.32441 3.69907,-4.08743 -0.51499,-8.0945 -4.63997,-4.41206 -2.02637,1.80897 -2.04736,1.79863 -1.34479,-0.66235 1.27704,-4.47319 4.75922,-6.5977 12.99039,-7.92553 13.15834,-2.122664 21.90176,-6.067742 19.2733,-8.696207 -1.30119,-1.301181 -30.88147,4.606511 -33.92834,6.776072 -5.14467,3.663335 -7.09465,10.266235 -4.80801,16.280565 1.03313,2.71733 2.83766,3.40317 3.4602,1.3151 z m 211.35657,-4.31687 c 2.47526,-1.73375 5.20798,-7.4533 5.20798,-10.90026 0,-1.22259 0.9,-3.037381 2,-4.032867 1.71623,-1.553162 2,-3.079967 2,-10.760632 0,-8.088412 0.24083,-9.23687 2.5,-11.921738 3.97001,-4.718092 2.71673,-7.015306 -2.38734,-4.375889 -3.72265,1.925058 -4.7738,5.285853 -5.64802,18.058259 -0.76509,11.177865 -2.62918,16.083107 -7.47275,19.664117 -3.15424,2.33203 -3.8276,4.332 -1.74189,5.1736 2.17682,0.87837 3.24553,0.70393 5.54202,-0.90459 z m -124.2656,-8.18313 c 2.61896,-12.758037 3.35308,-13.358272 17.59673,-14.387568 11.39956,-0.823773 17.20134,-2.654337 19.28547,-6.084906 0.75034,-1.235096 0.70463,-2.06427 -0.16152,-2.930429 -1.50652,-1.506518 -29.66313,1.581578 -35.51582,3.895222 -7.01619,2.77359 -9.27367,8.380621 -6.58619,16.358461 2.1366,6.34253 4.44812,7.69526 5.38133,3.14922 z m 172.98726,50.5821 c -2.99283,-2.35416 -5.51368,-7.41333 -5.51368,-11.06558 0,-4.04341 3.32674,-8.50125 9.96546,-13.35375 16.39497,-11.98372 34.30068,-32.818206 39.25358,-45.674166 3.92029,-10.175651 1.88135,-20.677093 -4.18872,-21.573793 -2.08563,-0.308099 -2.23197,-0.02522 -1.81062,3.5 1.06237,8.888401 -4.66027,16.3541 -12.50449,16.31323 -12.30819,-0.06413 -22.87977,-12.354149 -23.06949,-26.819487 -0.25979,-19.808584 16.17601,-38.584892 36.9835,-42.250058 21.81195,-3.8421001 44.97184,14.205801 50.95099,39.704787 2.30275,9.820459 1.53675,27.554407 -1.5717,36.38672 -6.52349,18.535747 -18.51661,34.227667 -36.50851,47.768097 -7.96123,5.9915 -28.67486,16.52221 -35.69282,18.14606 -7.56174,1.74967 -13.16676,1.37744 -16.2935,-1.08206 z m 18.01258,-22.2407 c 4.41444,-3.01183 9.945,-7.83479 12.29014,-10.71769 2.34513,-2.88289 5.14688,-5.86011 6.22611,-6.61604 1.07924,-0.75592 3.82323,-4.16064 6.09777,-7.56604 2.27454,-3.40539 5.3552,-7.541627 6.84591,-9.191627 1.49071,-1.65 4.57866,-5.660757 6.8621,-8.912792 3.77784,-5.380324 4.15171,-6.466565 4.15171,-12.062171 0,-5.93564 -0.8344,-8.616117 -5.76295,-18.513235 -1.84644,-3.707863 -6.21988,-5.879074 -4.76022,-2.363226 4.41531,10.635022 4.83632,13.171955 3.50144,21.098977 -2.89848,17.212319 -19.80173,40.710054 -39.97827,55.575054 -9.05063,6.66802 -10,7.50306 -10,8.79576 0,0.62588 1.4625,-0.0295 3.25,-1.45648 1.7875,-1.42694 6.86182,-5.05865 11.27626,-8.07049 z m -2.82399,-68.841397 c 0.5497,-8.832575 1.97388,-16.601644 3.44694,-18.803478 0.90022,-1.345587 4.06467,-5.034022 7.0321,-8.196522 4.17708,-4.451656 6.06408,-5.757182 8.35702,-5.781804 1.62892,-0.01749 3.83518,-0.692492 4.9028,-1.5 1.06762,-0.807508 2.70002,-1.468196 3.62756,-1.468196 2.78501,0 4.43499,-2.688175 2.83402,-4.617225 -1.72217,-2.075093 -9.47777,-1.391418 -15.90271,1.401863 -5.64034,2.452174 -14.21922,10.97105 -17.15449,17.034501 -3.22751,6.667144 -3.24096,17.425428 -0.0274,21.930861 1.27495,1.7875 2.39995,3.25 2.5,3.25 0.10004,0 0.27292,-1.4625 0.38417,-3.25 z m 51.29773,-18.75 c 0,-0.55 -0.675,-1 -1.5,-1 -0.825,0 -1.5,0.45 -1.5,1 0,0.55 0.675,1 1.5,1 0.825,0 1.5,-0.45 1.5,-1 z"
         id="path6" />
      <path
         style="fill:#9e6e51"
         d="m 220.64814,248.28207 c -7.91555,-4.0196 -12.81748,-10.2242 -15.72365,-19.90212 -2.93519,-9.77457 -8.08202,-30.30863 -14.18431,-56.59044 -5.07281,-21.84799 -5.18933,-26.44302 -0.88588,-34.93546 4.84565,-9.56243 13.17027,-14.11505 27.14659,-14.8461 8.17704,-0.42771 9.70506,-0.21877 14.51271,1.98445 2.95537,1.35438 7.53827,4.33779 10.18422,6.62981 2.64595,2.29201 5.18531,4.1673 5.64301,4.1673 1.12428,0 2.04142,-2.58619 2.06813,-5.83178 0.0121,-1.46752 0.85713,-4.46822 1.87789,-6.66822 5.5565,-11.97568 23.14849,-17.97631 36.218,-12.35395 l 4.98862,2.14604 3.81376,-3.96899 c 5.66672,-5.89736 10.06697,-7.61799 19.54562,-7.64292 10.55139,-0.0277 16.7563,2.59415 23.43619,9.90302 5.07436,5.55216 6.09146,5.80197 6.10773,1.50014 0.0164,-4.32562 4.42715,-12.416479 8.43577,-15.474002 7.2225,-5.508865 16.6876,-6.930455 26.19331,-3.934046 5.3048,1.672191 5.3244,1.670342 10.60224,-1 2.90819,-1.471409 6.18116,-2.677569 7.27326,-2.680356 2.32611,-0.0059 34.2247,-5.103633 46.34612,-7.40655 9.67868,-1.838828 17.82694,-2.037929 21.78689,-0.532358 2.30972,0.878154 3.62606,0.630491 7.8151,-1.470376 5.54116,-2.778975 7.59528,-3.130564 44.39927,-7.599511 21.8425,-2.652238 26.08937,-2.916724 30.60556,-1.906046 4.91343,1.099578 5.5207,1.012873 9.63827,-1.376142 5.16522,-2.996863 14.84701,-4.982325 19.85725,-4.072163 6.14121,1.115612 11.95938,4.459228 16.01447,9.203285 3.49121,4.084368 3.99944,4.373334 4.62035,2.627044 2.35531,-6.624235 3.68859,-8.656909 7.47956,-11.40307 5.48165,-3.970888 10.96834,-5.397572 18.468,-4.802166 9.85938,0.782746 17.9795,6.379911 22.1035,15.235841 1.98666,4.266183 2.33322,6.606102 2.34154,15.809873 0.006,6.299603 -0.65949,13.802783 -1.59577,18.000003 -2.12976,9.54738 -7.97106,21.90571 -14.31486,30.28567 -4.03564,5.33095 -5.03214,7.35884 -4.59887,9.35868 1.12578,5.19624 0.92406,17.6957 -0.35822,22.19677 -1.66776,5.8542 -5.93755,11.07513 -11.94613,14.60727 -3.8981,2.2915 -5.84137,2.74901 -11.67638,2.74901 -5.80084,0 -7.78521,-0.46162 -11.58364,-2.69466 -10.37584,-6.09982 -15.69082,-15.22984 -16.63231,-28.57084 l -0.58539,-8.29514 -7.1194,-6.928 c -3.91567,-3.8104 -8.68537,-9.40014 -10.59933,-12.42163 -2.98334,-4.70968 -3.92623,-5.50048 -6.60748,-5.54167 -5.38652,-0.0828 -5.64721,1.11774 -3.82403,17.61002 2.364,21.38439 2.21919,32.81777 -0.49334,38.95198 -5.92523,13.39958 -20.35652,19.03061 -32.83526,12.81219 -5.53897,-2.76018 -8.69625,-5.96634 -12.84239,-13.04118 -3.44138,-5.87228 -4.00661,-8.88167 -5.33056,-28.38107 -1.51582,-22.32526 -1.07933,-21 -6.9167,-21 -2.65745,0 -6.24933,-0.49418 -7.98196,-1.09818 -2.65263,-0.92471 -3.70055,-0.77348 -6.6342,0.95741 -1.91618,1.13058 -5.33879,2.55505 -7.6058,3.16549 l -4.12184,1.10989 0.70279,5.6827 c 0.38653,3.12548 1.5583,10.85769 2.60394,17.18269 2.09914,12.6975 2.44207,24.53301 0.87439,30.17731 -3.03032,10.91042 -13.08511,18.84261 -23.83168,18.80073 -7.13399,-0.0278 -12.74762,-2.53721 -18.4644,-8.25399 -6.69618,-6.69619 -8.45046,-12.55141 -10.19649,-34.03262 -0.80856,-9.94764 -1.86637,-18.48288 -2.35069,-18.9672 -0.48432,-0.48432 -2.1729,-0.7329 -3.75241,-0.55241 -2.37304,0.27119 -2.83849,0.76238 -2.6799,2.82818 0.90447,11.78202 0.32257,29.20573 -1.16652,34.9286 -5.00972,19.25344 -19.39604,34.68993 -37.94785,40.71799 -14.13213,4.59197 -33.21501,3.38369 -43.19558,-2.73504 -4.53848,-2.78237 -5.58709,-2.41755 -8.56253,2.97901 -3.10666,5.63457 -9.38658,11.11674 -16.3991,14.3159 -3.99269,1.82149 -6.73398,2.2493 -14.54004,2.26912 -9.35702,0.0238 -9.84857,-0.0916 -18.00156,-4.22558 -4.61003,-2.3375 -8.68377,-4.25 -9.05275,-4.25 -0.36899,0 -1.1586,1.4778 -1.7547,3.284 -2.64558,8.0162 -12.65128,14.75975 -22.89612,15.43133 -5.76266,0.37776 -7.39133,0.0739 -11.91403,-2.22277 z M 230.08845,231.83 c 7.41113,-4.51883 7.86894,-11.53229 2.37919,-36.44788 -2.27687,-10.3337 -2.78069,-14.24909 -1.96069,-15.23714 1.57229,-1.89449 2.83935,-0.85646 9.94154,8.14453 21.88257,27.73295 28.3004,33.01608 40.01059,32.93656 8.33897,-0.0566 12.59757,-2.34412 15.67792,-8.42133 3.82202,-7.54043 3.06131,-14.37897 -6.62041,-59.51523 -5.91345,-27.56856 -7.47888,-32.14487 -12.0495,-35.22501 -10.01014,-6.74583 -23.20013,2.55215 -21.59799,15.22501 0.56481,4.46764 6.45303,31.54307 8.09828,37.23785 0.46821,1.62062 0.15211,2.42758 -1.14605,2.92572 -1.31498,0.50461 -2.47751,-0.21864 -4.36345,-2.71466 -1.41398,-1.8714 -6.35382,-7.46297 -10.97741,-12.42572 -4.62359,-4.96276 -10.69255,-11.86778 -13.48659,-15.34451 -10.38941,-12.92793 -22.71529,-17.01859 -31.83695,-10.56591 -10.56672,7.47492 -11.06445,12.8809 -3.76562,40.8991 2.86383,10.99347 7.15954,27.86313 9.54602,37.48813 3.87176,15.61536 4.66978,17.79616 7.41013,20.25 3.78738,3.3914 9.93471,3.72105 14.74099,0.79049 z m 49.26338,-15.58287 c -0.89421,-1.07746 -0.96348,-1.85896 -0.22981,-2.59264 1.36209,-1.36208 5.26498,0.61732 5.26498,2.67021 0,1.93262 -3.41047,1.88008 -5.03517,-0.0776 z m 11.07682,-3.90743 c -1.04872,-1.26363 -1.04872,-1.83674 0,-3.10038 1.16211,-1.40025 1.43648,-1.40025 2.83673,0 1.40026,1.40026 1.40026,1.70013 0,3.10038 -1.40025,1.40025 -1.67462,1.40025 -2.83673,0 z m 70.24347,-9.89118 c 13.72193,-5.24967 23.43973,-17.55733 25.78189,-32.65295 1.18912,-7.66403 0.72398,-14.94312 -2.6816,-41.96556 -2.56528,-20.3548 -6.60166,-27.74697 -15.71148,-28.773783 -8.33267,-0.939213 -16.67393,6.344453 -16.67393,14.559833 0,1.59842 1.08345,8.70385 2.40765,15.78984 1.32421,7.08599 2.97306,17.91282 3.66412,24.05962 1.14292,10.16606 1.09568,11.597 -0.52269,15.83466 -2.11439,5.53644 -6.26704,8.48016 -11.9705,8.48559 -3.32171,0.003 -4.55595,-0.6585 -8.07062,-4.32661 -6.09653,-6.3627 -7.34504,-11.71955 -10.43903,-44.78995 -1.14616,-12.25073 -2.23018,-15.21952 -6.49063,-17.7758 -7.09636,-4.25783 -14.3819,-3.36948 -19.41935,2.36785 -5.41322,6.16532 -5.16161,14.43674 1.49143,49.02825 4.04395,21.02593 11.20026,33.34335 22.79199,39.22946 7.74865,3.93466 9.34258,4.25045 19.55763,3.87476 7.20259,-0.2649 11.14087,-0.97715 16.28512,-2.94521 z m 79.6857,-13.14392 c 3.28361,-1.69802 6.45094,-5.82673 7.3592,-9.59293 0.74138,-3.07426 -0.21774,-11.65236 -4.29126,-38.37977 -1.67296,-10.97669 -2.7856,-20.76467 -2.47253,-21.75106 0.7978,-2.51364 3.56826,-3.7704 10.73825,-4.87117 9.48718,-1.45653 13.30703,-3.49196 15.13718,-8.06596 2.02361,-5.05749 1.93929,-8.418729 -0.33691,-13.430394 -3.08937,-6.802059 -5.40505,-7.221939 -25.02357,-4.537295 -25.85704,3.538336 -45.3078,7.129429 -48.47665,8.94999 -4.93519,2.835359 -7.1111,6.689989 -7.05021,12.489489 0.12188,11.60814 7.43492,15.61747 22.84238,12.52321 7.86611,-1.57974 8.66351,-0.64628 9.67761,11.32897 2.08779,24.65391 4.09453,43.65609 4.94968,46.86946 0.92109,3.4611 4.96848,8.1543 7.97601,9.24867 2.7617,1.00491 6.07478,0.71639 8.97082,-0.78121 z m -1.47082,-7.51509 c 0.33992,-0.55 1.04148,-1 1.55902,-1 0.51754,0 0.94098,0.45 0.94098,1 0,0.55 -0.70156,1 -1.55902,1 -0.85745,0 -1.2809,-0.45 -0.94098,-1 z m 0.5,-9.42667 c 0,-0.92764 0.855,-1.57333 2.08333,-1.57333 2.43705,0 2.09257,2.33678 -0.41619,2.82333 -0.98677,0.19137 -1.66714,-0.31876 -1.66714,-1.25 z m 85.64713,3.96128 c 3.17541,-2.22415 5.35287,-7.74537 5.35287,-13.57288 0,-2.87981 -0.86565,-12.9368 -1.92368,-22.34887 -2.69326,-23.95903 -3.15696,-30.90504 -2.16847,-32.48267 0.47937,-0.76508 4.4724,-1.94849 9.04486,-2.68062 9.45341,-1.51366 12.65326,-3.26226 14.63082,-7.99523 2.80033,-6.702134 0.97268,-17.015928 -3.43313,-19.373846 -3.62298,-1.938958 -13.13271,-1.369111 -49.41877,2.961296 -17.27747,2.061908 -21.95642,3.639671 -24.84595,8.378177 -3.52378,5.778598 -1.32322,14.697973 4.83642,19.603133 2.55862,2.03752 3.50522,2.16569 11.99163,1.6237 8.69048,-0.55503 9.30098,-0.46389 10.75,1.60488 0.96393,1.3762 1.5416,4.4389 1.55057,8.22083 0.008,3.31512 0.68368,15.44427 1.50181,26.95366 1.60171,22.53277 2.72619,26.93538 7.48389,29.3012 3.43867,1.70991 12.0933,1.59602 14.64713,-0.19276 z m -3.14713,-7.03461 c 0,-1.375 0.2824,-2.5 0.62756,-2.5 1.2479,0 3.02933,2.93713 2.39951,3.9562 -1.19883,1.93975 -3.02707,1.06026 -3.02707,-1.4562 z m 17.99564,-69.50706 c -0.34232,-0.553885 0.10053,-1.284477 0.98411,-1.623539 1.91465,-0.734719 2.98171,0.07492 2.06137,1.56407 -0.83038,1.343579 -2.23491,1.371009 -3.04548,0.05947 z m 64.53709,69.49014 c 1.61338,-0.83431 3.61603,-2.83697 4.45034,-4.45034 1.80054,-3.48186 1.98091,-13.15924 0.4314,-23.14604 l -1.08553,-6.99641 4.33553,-4.82296 c 12.12519,-13.48837 17.22199,-24.56246 18.49165,-40.177833 0.77351,-9.513243 -0.0442,-14.008824 -3.23864,-17.805192 -4.60452,-5.472161 -16.21195,-5.099305 -19.97353,0.641592 -1.20177,1.834121 -1.9533,5.961066 -2.49474,13.69948 -0.86232,12.324534 -1.54312,14.750133 -5.43973,19.380993 -3.54919,4.21798 -6.48809,4.12096 -10.40802,-0.34359 -3.98537,-4.53909 -5.76961,-8.883576 -6.62907,-16.141317 -0.84511,-7.136592 -3.59918,-13.783767 -6.31259,-15.235936 -2.88861,-1.545941 -10.76224,-1.342471 -14.06096,0.363364 -4.72518,2.443486 -6.49901,6.221312 -6.36276,13.551112 0.29069,15.637327 10.4387,35.707737 22.51392,44.527337 l 4.75,3.46934 v 12.05132 c 0,8.40209 0.42544,12.86901 1.40499,14.75166 1.54885,2.97686 5.26296,6.64162 7.59501,7.49411 2.9823,1.0902 9.16194,0.67385 12.03273,-0.81069 z M 602.387,160.7305 c 0,-0.58246 0.45,-0.78091 1,-0.44099 0.55,0.33992 1,0.81648 1,1.05902 0,0.24254 -0.45,0.44098 -1,0.44098 -0.55,0 -1,-0.47656 -1,-1.05901 z m 50.3736,-4.92643 c -2.72772,-1.10148 -5.93656,-5.64414 -6.79769,-9.62329 -1.00753,-4.65564 1.86113,-10.88022 6.27004,-13.60508 4.25207,-2.62792 14.30687,-11.18787 22.18175,-18.88398 6.66726,-6.51591 16.04384,-19.646382 19.70746,-27.597315 4.79332,-10.402628 2.97191,-22.14968 -3.58548,-23.124443 -1.99904,-0.297158 -2.14968,0.106807 -2.14968,5.764685 0,5.470371 -0.32797,6.44211 -3.2506,9.631256 -11.32555,12.358319 -31.92999,-2.718137 -31.92388,-23.358998 0.007,-23.920364 24.99311,-45.0683284 48.69513,-41.215147 7.10989,1.155838 16.40211,5.527175 22.07858,10.386416 2.25457,1.929991 6.00328,6.431529 8.33046,10.003418 11.39741,17.49342 13.18429,39.19183 5.02364,61.003111 -5.04858,13.493557 -22.63821,34.263177 -37.45512,44.226577 -19.66755,13.22513 -38.63213,19.82216 -47.12461,16.39279 z m 20.46087,-17.03579 c 14.20277,-6.78452 25.5346,-14.51372 34.04437,-23.22093 12.74274,-13.03839 18.88069,-22.608346 23.25496,-36.257837 9.71315,-30.308987 -8.12301,-59.227248 -36.30035,-58.854748 -20.09054,0.265593 -37.95822,20.813944 -33.89323,38.978211 1.56925,7.012147 6.48975,11.632782 11.90675,11.181121 l 3.65303,-0.304584 0.003,-6.049206 c 0.006,-9.945125 4.83844,-15.123223 13.23181,-14.177169 5.85848,0.660335 10.03769,4.830802 13.13406,13.106577 2.52449,6.747315 2.59772,9.01216 0.56968,17.619798 -3.72993,15.831053 -20.04373,37.046397 -40.0505,52.083817 -7.57834,5.69601 -9.38848,7.55123 -9.38848,9.62229 0,2.47945 0.15707,2.54421 4.6703,1.92561 2.56866,-0.35208 9.39254,-2.89591 15.16417,-5.65295 z m 50.34221,-59.645901 c 0.48655,-2.508769 2.82332,-2.853244 2.82332,-0.4162 0,1.228338 -0.64569,2.083334 -1.57332,2.083334 -0.93124,0 -1.44138,-0.68037 -1.25,-1.667134 z"
         id="path5" />
      <path
         style="display:inline;fill:#915532"
         d="m 222.62935,248.29543 c -4.7975,-2.08503 -9.66842,-6.07024 -12.61335,-10.31978 -2.73432,-3.94562 -8.98814,-26.59563 -18.13638,-65.68614 -5.2427,-22.4021 -5.34969,-26.184 -0.99261,-35.08955 4.52347,-9.24562 11.9946,-13.30194 26.04403,-14.14014 8.34633,-0.49795 9.65655,-0.32069 14.5637,1.97037 2.96574,1.38465 7.79151,4.59695 10.72392,7.13844 2.93241,2.54148 5.69676,4.62088 6.14301,4.62088 1.21199,0 2.02533,-2.71715 2.02533,-6.76606 0,-4.87641 3.42568,-11.61493 7.69285,-15.13229 6.99245,-5.76376 21.10473,-7.73774 29.16636,-4.07969 2.39756,1.08793 4.77381,1.97804 5.28055,1.97804 0.50674,0 2.32749,-1.60151 4.04611,-3.55891 5.04397,-5.74477 10.02464,-7.73905 19.33082,-7.74014 11.823,-0.001 20.37308,4.41186 26.08879,13.46615 1.33079,2.1081 2.86397,3.8329 3.40707,3.8329 0.5431,0 0.98745,-2.03945 0.98745,-4.53212 0,-15.859841 15.12205,-25.534855 32.76053,-20.960023 6.77739,1.757827 6.80046,1.75674 11.26538,-0.530848 3.16216,-1.620122 10.48526,-3.244286 24.97409,-5.538913 11.275,-1.785646 24.49645,-3.964709 29.38099,-4.842361 10.45028,-1.8777 17.09235,-2.023891 21.53822,-0.474051 2.79625,0.974777 3.8308,0.792367 7.89923,-1.392779 6.25534,-3.359734 4.03891,-3.008892 61.68156,-9.76368 5.63121,-0.659887 9.69056,-0.58872 13.70944,0.240351 4.99246,1.029915 5.94052,0.96869 7.54964,-0.487545 3.10344,-2.808573 10.41413,-4.912617 17.24092,-4.962 8.36563,-0.06051 15.77372,3.433816 19.62831,9.258499 1.45061,2.19201 3.2346,3.985473 3.96444,3.985473 0.72983,0 1.87314,-1.822974 2.54069,-4.051053 2.32458,-7.758738 9.6567,-12.921596 19.46946,-13.70927 11.33166,-0.909597 21.593,4.690282 26.0215,14.200616 2.00615,4.308267 2.35494,6.619109 2.34847,15.559707 -0.0132,18.304747 -4.73881,33.163557 -14.85526,46.709977 l -5.61761,7.52225 0.35599,11.90711 c 0.335,11.20502 0.20088,12.22414 -2.27469,17.28403 -9.38102,19.1741 -35.20434,17.42842 -44.77656,-3.02694 -2.26713,-4.84473 -3.13108,-8.39845 -3.55877,-14.63831 l -0.56481,-8.24037 -7.73219,-7.56769 c -4.2527,-4.16223 -9.16956,-9.90372 -10.92635,-12.75887 -2.78148,-4.52049 -3.61059,-5.19119 -6.41726,-5.19119 -1.77271,0 -4.02959,0.58972 -5.01529,1.31049 -1.71741,1.25579 -1.72074,1.9548 -0.0799,16.75 2.21899,20.008 2.24389,33.19897 0.0725,38.3959 -2.61917,6.26855 -6.13741,10.14284 -11.75105,12.94023 -12.45361,6.20589 -25.42595,1.07962 -33.07613,-13.07068 -2.92322,-5.40697 -3.91084,-11.97613 -5.311,-35.32594 -0.37927,-6.325 -1.13954,-12.0625 -1.68948,-12.75 -0.54995,-0.6875 -2.80509,-1.25 -5.01143,-1.25 -2.20635,0 -5.73174,-0.51538 -7.8342,-1.14529 -3.41561,-1.02335 -4.3863,-0.86745 -9.11602,1.46406 -2.91135,1.43515 -6.53086,2.8591 -8.04336,3.16435 -3.42585,0.69138 -3.42563,0.6733 -0.24741,20.95051 4.02024,25.64935 3.03758,35.63378 -4.30902,43.78226 -12.99328,14.41148 -35.80898,7.93268 -41.79647,-11.86862 -0.80614,-2.666 -2.14747,-12.91366 -2.98074,-22.77258 -0.83326,-9.85893 -1.74438,-18.29643 -2.02471,-18.75 -0.83671,-1.35382 -8.37857,-0.97642 -8.49939,0.42531 -0.0593,0.6875 -0.025,8.225 0.0761,16.75 0.16843,14.2003 -0.0334,16.18401 -2.40651,23.65739 -6.58684,20.74277 -22.61705,34.66438 -44.87727,38.97413 -10.50129,2.03313 -19.97098,1.01615 -30.0411,-3.22619 -10.05026,-4.23398 -9.68029,-4.30204 -14.14884,2.60293 -7.3114,11.29785 -19.35312,16.94784 -33.33746,15.64196 -6.46474,-0.60368 -15.17987,-3.94969 -19.84454,-7.61892 -1.42031,-1.11721 -2.95918,-2.0313 -3.41972,-2.0313 -0.46054,0 -1.81369,2.26958 -3.007,5.0435 -4.97824,11.57223 -20.65083,18.23996 -31.64359,13.46242 z m 11.83597,-11.77971 c 4.25736,-2.86904 7.67331,-7.89235 8.56005,-12.58796 0.37788,-2.00104 0.16715,-7.21907 -0.46828,-11.59562 -1.75005,-12.05343 -0.63564,-12.03187 9.74731,0.18859 3.37915,3.97717 7.14261,7.76113 8.36325,8.40879 1.39063,0.73785 0.44002,-0.84211 -2.54578,-4.23122 -2.62082,-2.97483 -8.16541,-9.56456 -12.32131,-14.64384 -4.1559,-5.07929 -8.02327,-9.52374 -8.59415,-9.87656 -1.21999,-0.754 -0.48322,4.81948 1.93154,14.61161 0.8816,3.575 1.61594,9.42503 1.63187,13.00007 0.0242,5.44074 -0.41064,7.14698 -2.66834,10.46948 -1.4835,2.18317 -4.38865,4.99334 -6.45588,6.24481 -2.06723,1.25147 -3.03765,2.2777 -2.15648,2.28052 0.88116,0.003 3.12045,-1.01809 4.9762,-2.26867 z m -4.0652,-3.85374 c 8.64997,-4.86155 9.06712,-13.21682 2.107,-42.20142 -2.5168,-10.48088 -2.45783,-9.67105 -0.70415,-9.67105 0.77879,0 2.90703,1.9125 4.72944,4.25 11.39814,14.61977 24.74915,29.70535 28.72279,32.45446 10.17719,7.04097 22.81046,6.71428 29.56716,-0.76459 1.96055,-2.1701 3.58424,-4.28183 3.60819,-4.69275 0.024,-0.41091 0.42036,-2.69694 0.88089,-5.08006 0.99953,-5.17218 -0.57461,-15.0541 -7.91169,-49.66706 -5.65991,-26.70079 -7.10454,-32.15394 -9.66758,-36.49281 -2.43776,-4.1268 -7.53852,-6.35821 -13.10097,-5.73124 -5.66759,0.63881 -9.13044,3.16161 -12.05525,8.7826 -1.88185,3.61658 -2.19625,5.37006 -1.6929,9.44145 0.55017,4.45002 6.41085,31.44354 8.08751,37.25 0.86277,2.98788 -2.06185,3.09334 -3.64697,0.13152 -0.62358,-1.16517 -4.80191,-6.1944 -9.28518,-11.17608 -4.48328,-4.98167 -11.17908,-12.5397 -14.87957,-16.79563 -12.24237,-14.0799 -23.06227,-17.73402 -33.4535,-11.29798 -6.0868,3.76999 -9.31834,9.71091 -9.31834,17.13098 0,3.45826 2.49447,15.10517 6.87342,32.09272 3.78038,14.66546 7.88885,30.93947 9.12993,36.16447 2.47863,10.43513 4.76945,15.10414 8.22886,16.77157 3.70539,1.78599 9.69922,1.39494 13.78091,-0.8991 z m 62.779,-8.40486 c 9.03174,-4.51839 11.41861,-8.67821 11.37489,-19.82407 -0.0271,-6.91576 -1.98271,-19.52101 -4.05594,-26.14354 -1.4468,-4.62156 -1.27144,-1.39314 0.34059,6.27018 0.79841,3.79551 1.75583,10.9303 2.1276,15.85509 0.59606,7.89591 0.43146,9.43339 -1.39274,13.00912 -5.70059,11.17408 -17.54351,15.00016 -32.2563,10.42103 -5.02158,-1.56289 -5.9512,-1.64783 -4.73607,-0.43269 2.48026,2.48026 8.90875,4.28664 15.42149,4.33338 5.0535,0.0363 7.34195,-0.5696 13.17648,-3.4885 z m 62.18632,-12.02407 c 14.90805,-3.51368 28.58383,-14.98984 33.90271,-28.44978 3.61298,-9.14301 4.11816,-16.2437 2.75641,-38.74376 l -0.86243,-14.25 7.36243,-0.011 c 8.62601,-0.0129 14.86244,-0.89783 14.86244,-2.10894 0,-0.47203 -3.95507,-0.57751 -8.78904,-0.23438 -7.07104,0.50191 -9.407,0.30431 -11.95034,-1.01091 -5.15273,-2.66458 -4.98453,-4.11235 -2.19171,18.86523 3.07486,25.2981 -1.33957,41.55319 -14.40133,53.02941 -13.66354,12.00494 -33.97844,15.75693 -49.07129,9.06306 -6.95491,-3.08459 -8.71651,-2.72226 -2.44319,0.50252 9.93211,5.10557 19.13084,6.10482 30.82534,3.34855 z m 8.02156,-9.58944 c 13.28822,-6.27852 21.79757,-17.94879 24.15803,-33.13187 1.1729,-7.54437 -0.0505,-23.75821 -3.65525,-48.44502 -2.39046,-16.37066 -8.50222,-23.880122 -18.71062,-22.989586 -5.70886,0.498016 -10.77446,4.047966 -13.26476,9.295886 -1.98853,4.19052 -1.73365,8.59965 1.45125,25.1049 3.21015,16.63609 4.47711,30.84703 3.14618,35.28928 -2.50818,8.37155 -11.7374,11.74352 -17.91503,6.54539 -5.81674,-4.89446 -8.82161,-16.83275 -10.70307,-42.52308 -0.94387,-12.8881 -2.24521,-17.60216 -5.65004,-20.46713 -11.61214,-9.77098 -26.82417,-1.68616 -26.85111,14.27069 -0.007,4.18976 4.37001,31.41451 6.95472,43.25724 2.04632,9.37588 6.85417,19.83209 11.97614,26.04592 2.76582,3.35543 12.19499,9.13055 17.91841,10.97457 1.45483,0.46873 7.37015,0.73169 13.14515,0.58435 9.66239,-0.24652 11.0983,-0.55057 18,-3.81154 z m 82.70998,-9.8188 c 1.76549,-1.07647 4.43381,-3.80656 5.9296,-6.06685 4.0688,-6.14837 3.66883,-13.5694 -2.70658,-50.21864 -1.02855,-5.9126 -1.6096,-11.42899 -1.29124,-12.25863 0.31836,-0.82964 1.76671,-1.77468 3.21854,-2.10009 8.43405,-1.89037 11.15559,-2.76781 15.93278,-5.13685 4.68317,-2.32241 5.67077,-2.48828 8.57099,-1.43955 4.11321,1.48736 19.27798,1.57351 20.17961,0.11464 0.46033,-0.74482 -1.42382,-0.86854 -6.19098,-0.40651 -5.20916,0.50487 -7.93197,0.26609 -11.3527,-0.99559 -7.5816,-2.79636 -7.78427,-2.80714 -10.1849,-0.54197 -3.74689,3.53546 -7.24732,4.94245 -15.26188,6.13446 -6.27583,0.93342 -7.55322,1.4361 -7.55322,2.97237 0,1.01693 1.60524,11.87473 3.5672,24.12844 5.06175,31.61392 4.16596,39.82814 -4.9386,45.28573 -2.27073,1.36115 -3.4536,2.4774 -2.6286,2.48054 0.825,0.003 2.94449,-0.87502 4.70998,-1.9515 z m -4.81856,-2.63023 c 1.485,-0.87721 3.80443,-3.21184 5.15429,-5.18805 3.34026,-4.8902 3.10074,-11.55678 -1.46756,-40.84698 -1.98413,-12.72149 -3.3411,-23.82419 -3.01551,-24.67268 0.76406,-1.99111 2.304,-2.54267 11.66324,-4.17739 9.33048,-1.6297 13.13029,-4.08847 15.00363,-9.7085 l 1.38853,-4.16557 2.28752,3.7013 c 3.58871,5.80665 6.94829,7.03364 17.25532,6.30203 6.27682,-0.44554 8.9469,-0.28385 9.47702,0.5739 0.40594,0.65681 1.53673,13.56669 2.51288,28.68861 0.97615,15.12193 2.29992,28.76214 2.94172,30.31158 2.08592,5.03585 6.40808,7.77841 12.23423,7.76303 7.70318,-0.0203 9.4905,-0.81834 12.20421,-5.44893 3.09467,-5.28065 3.17862,-10.49768 0.54594,-33.92456 -2.91222,-25.91431 -3.16119,-30.30358 -1.78135,-31.40481 0.66246,-0.52869 3.90447,-1.25891 7.20447,-1.6227 13.22147,-1.45753 18.05256,-6.566617 17.30536,-18.301148 -0.37303,-5.858354 -0.755,-6.850013 -3.62693,-9.416077 -2.85357,-2.54967 -3.95017,-2.868122 -9.87648,-2.868122 -3.66657,0 -10.52197,0.438841 -15.23422,0.975203 -4.71225,0.536362 -15.09273,1.696185 -23.06773,2.577385 -18.43163,2.036609 -24.08993,3.57714 -27.34434,7.444787 -1.3846,1.645508 -2.80385,3.894177 -3.15389,4.997042 -0.58935,1.856888 -0.87581,1.751391 -3.87272,-1.426265 -1.77997,-1.887311 -4.51688,-3.75288 -6.08204,-4.145709 -5.78324,-1.451503 -61.80237,7.520066 -67.79692,10.857803 -4.10378,2.284967 -7.75009,8.464501 -7.75009,13.134351 0,4.06617 2.82033,9.34658 6.48512,12.14185 3.63897,2.77558 8.99977,3.1763 17.65625,1.31981 4.91212,-1.05346 5.35298,-0.98399 7.04922,1.11079 1.09075,1.34701 1.80941,3.86897 1.80941,6.34965 0,4.72865 2.58848,32.6432 4.03059,43.46652 0.5352,4.01677 1.66911,8.64917 2.5198,10.29422 3.1575,6.10593 11.61002,8.69302 17.34103,5.30763 z m 88.2107,-9.66826 c 1.86883,-1.24476 4.29788,-4.05726 5.39788,-6.25 2.44011,-4.86412 2.43345,-13.88316 -0.024,-32.48681 -0.90814,-6.875 -1.89084,-16.16772 -2.18378,-20.6505 -0.62,-9.48803 -0.42448,-9.72099 8.92864,-10.63805 6.93934,-0.6804 12.77912,-2.66977 12.77912,-4.35332 0,-2.09065 -2.03384,-2.63748 -3.81484,-1.02569 -2.43414,2.20286 -6.84108,3.72943 -13.57963,4.704 -3.24195,0.46888 -6.28504,1.24307 -6.7624,1.72044 -0.49059,0.49058 0.48188,11.68123 2.23673,25.73925 3.92622,31.45258 3.72186,34.08115 -3.16838,40.75387 -5.29764,5.1304 -5.22383,6.09317 0.19064,2.48681 z m 78.354,-5.71557 c 4.49104,-2.17407 6.99183,-5.65605 7.91554,-11.02124 l 0.60259,-3.5 -1.58524,3.48342 c -2.57622,5.66102 -5.31736,8.92851 -9.21949,10.98979 -4.82997,2.5514 -2.96557,2.59057 2.2866,0.048 z m -2.34166,-4.77224 c 6.15623,-3.57931 7.63624,-12.07943 4.90557,-28.17397 l -1.25976,-7.42496 2.56102,-1.86557 c 3.55318,-2.58832 11.20482,-13.54727 14.75333,-21.13026 7.78599,-16.638284 7.75197,-37.571641 -0.069,-42.426364 -3.47245,-2.155472 -10.20334,-2.589947 -14.20712,-0.917063 -5.72883,2.39366 -6.94869,5.207232 -7.8309,18.061714 -0.8666,12.627092 -3.12176,18.829313 -7.58604,20.863373 -3.28534,1.4969 -5.06268,0.38451 -8.68331,-5.43463 -1.9245,-3.09309 -3.2383,-7.200045 -4.19618,-13.117284 -0.76696,-4.737891 -1.86586,-9.495116 -2.44198,-10.571613 -4.52476,-8.454599 -19.03187,-8.189921 -24.6933,0.450523 -7.05729,10.770776 6.70736,45.514864 21.80839,55.047724 l 3.82477,2.41447 v 12.08633 c 0,16.02083 1.95482,20.31172 10.68381,23.45135 4.16193,1.49695 8.35934,1.05334 12.43065,-1.31377 z m -307.43134,-2.4365 c -0.31923,-0.79773 -0.55619,-0.56077 -0.60417,0.60417 -0.0434,1.05417 0.19293,1.64479 0.52522,1.3125 0.33229,-0.33229 0.36782,-1.19479 0.0789,-1.91667 z m 39.97552,-3.95501 c -0.80285,-2.94662 -2.46402,-14.13249 -3.69149,-24.85749 -1.22747,-10.725 -2.65063,-20.175 -3.16257,-21 -0.66023,-1.06395 -0.76793,-0.72586 -0.37048,1.16302 0.30819,1.46467 1.03595,8.43967 1.61724,15.5 1.75047,21.26098 4.6963,36.92268 6.58886,35.03011 0.26299,-0.26298 -0.17871,-2.88903 -0.98156,-5.83564 z m 14.34136,-7.17383 c 0,-4.91279 -2.0067,-15.03541 -3.20823,-16.18366 -1.14248,-1.0918 -0.48202,14.54462 0.74973,17.75 1.09908,2.86015 2.4585,1.99405 2.4585,-1.56634 z m -56.83155,-0.91521 c -0.74207,-0.74206 -0.87221,-0.35163 -0.43724,1.31171 0.35361,1.35221 0.80691,1.8055 1.05655,1.05655 0.24049,-0.72144 -0.0382,-1.78716 -0.61931,-2.36826 z m -1.724,-10.21289 c -0.37649,-2.00685 -0.88453,-3.44881 -1.12897,-3.20437 -0.24444,0.24445 -0.13641,2.08641 0.24008,4.09326 0.37648,2.00684 0.88452,3.44881 1.12896,3.20436 0.24445,-0.24444 0.13641,-2.08641 -0.24007,-4.09325 z m 325.09409,-11.45525 c 6.61148,-5.80496 13.62021,-18.51175 16.48862,-29.8938 2.12393,-8.427875 2.66085,-24.673016 0.8992,-27.206507 -0.75176,-1.081144 -0.86428,-0.05854 -0.40293,3.662143 1.85899,14.992442 -5.39567,37.016254 -16.44573,49.926254 -4.57265,5.3423 -5.04396,6.34496 -4.89411,10.4116 l 0.16583,4.5 0.38008,-4.19451 c 0.29595,-3.26617 1.13898,-4.86084 3.80904,-7.20518 z m -327.06353,0.64969 c -0.72321,-5.3277 -2.98473,-12.20543 -4.7758,-14.52416 -1.69185,-2.19028 -1.91799,-0.54959 -0.34382,2.49452 0.82658,1.59842 2.28344,6.14024 3.23748,10.09293 0.95403,3.95269 1.92815,7.18671 2.1647,7.18671 0.23656,0 0.10941,-2.3625 -0.28256,-5.25 z M 592.54752,99.118123 c -1.10857,-1.555736 -2.77379,-6.34051 -3.7005,-10.632833 -2.12426,-9.839251 -2.84936,-9.527649 -1.10962,0.476853 1.17697,6.768277 4.97825,14.832057 6.34675,13.463557 0.26343,-0.26343 -0.42805,-1.75184 -1.53663,-3.307577 z m 59.67763,55.145597 c -1.60726,-0.87294 -3.33248,-3.20174 -4.35458,-5.87806 -2.62408,-6.87104 -0.99695,-10.38958 7.85184,-16.97899 17.58152,-13.09239 31.91882,-29.44601 39.01005,-44.496197 5.08702,-10.796531 3.98107,-21.735106 -2.551,-25.230962 -3.21408,-1.720122 -4.79446,0.593931 -4.79446,7.020221 0,4.721012 -0.46035,6.216754 -2.76182,8.973546 -5.76166,6.901536 -17.96125,4.739432 -24.16915,-4.283438 -4.86934,-7.077347 -6.2455,-11.248722 -6.2455,-18.931231 0,-6.149207 0.48341,-7.948355 4.09278,-15.232357 10.06071,-20.303371 33.32167,-30.1879863 52.0331,-22.111185 6.6575,2.873715 15.27079,9.206458 18.49398,13.59732 18.04304,24.579548 16.69191,55.91611 -3.5906,83.275693 -18.44623,24.8826 -59.5799,47.57237 -73.01464,40.27564 z m 11.32382,-9.52877 c 7.05444,-2.37647 24.60959,-11.31615 31.41048,-15.99528 11.91896,-8.20046 25.21686,-23.27188 31.27673,-35.448045 9.50598,-19.100469 10.50054,-35.955018 3.07795,-52.161219 -4.98754,-10.889607 -13.4407,-17.480904 -26.79053,-20.889757 -8.06996,-2.060649 -15.60897,-0.915632 -24.23183,3.680304 -18.06617,9.629171 -25.58692,33.11974 -14.23732,44.469342 3.1433,3.143304 3.9796,3.471029 8.16722,3.200551 l 4.66533,-0.301333 0.29247,-7.183698 c 0.27684,-6.799773 0.47912,-7.347574 3.7848,-10.25 6.3865,-5.607423 14.31261,-3.163944 18.86258,5.815001 3.5669,7.03893 4.06644,11.745417 2.1574,20.32619 -3.69945,16.628295 -19.43705,36.845334 -42.09725,54.079514 -7.46611,5.67834 -9.18811,9.00545 -5.90384,11.40696 2.30023,1.68197 2.36633,1.6768 9.56581,-0.74853 z m 17.53102,-81.676405 c -0.25354,-0.972968 -0.47766,-0.419032 -0.49804,1.230968 -0.0204,1.65 0.18707,2.446064 0.46099,1.769032 0.27392,-0.677033 0.2906,-2.027033 0.037,-3 z m 5.32222,-9.097297 c -0.6664,-0.222133 -1.95494,0.35535 -2.86342,1.283295 -1.54626,1.579384 -1.46885,1.605186 1.21163,0.403878 1.57488,-0.705812 2.31819,-1.46504 1.65179,-1.687173 z"
         id="path4" />
      <path
         style="display:inline;fill:#76452e"
         d="m 223.84021,248.46343 c -5.54969,-2.13827 -10.01384,-5.53421 -13.31167,-10.12636 -2.79167,-3.88733 -4.30401,-8.71908 -10.57681,-33.79173 -13.58367,-54.29454 -13.93832,-56.65468 -9.88068,-65.75583 4.48923,-10.06918 12.67744,-14.88355 26.74073,-15.72258 8.79112,-0.52449 9.84638,-0.37846 14.77135,2.04403 2.91713,1.43487 7.6769,4.69364 10.57727,7.24172 6.37977,5.60485 8.2266,5.37078 8.2266,-1.04268 0,-16.71691 20.08615,-27.20478 38.25767,-19.97603 l 4.75767,1.89263 2.99112,-3.62875 c 4.5468,-5.51606 10.17848,-7.80834 19.18354,-7.80834 12.41479,0 19.87787,3.72494 26.16354,13.05862 3.65146,5.42211 4.64363,5.42738 4.65204,0.0247 0.0256,-16.477173 14.9051,-26.205137 32.93103,-21.529813 l 6.79067,1.761272 5.33271,-2.657398 c 2.93298,-1.461569 6.25685,-2.659678 7.38636,-2.662465 2.37957,-0.0059 34.12126,-5.07106 46.41412,-7.40655 9.9357,-1.887658 15.04689,-1.996028 20.27427,-0.429868 3.50804,1.051035 4.3309,0.905911 8.86941,-1.564258 4.38164,-2.384786 8.01245,-3.096045 29.24924,-5.729797 28.97281,-3.593159 43.42199,-4.521875 47.61439,-3.060399 2.53212,0.882702 3.44967,0.734072 5.51954,-0.894087 3.97068,-3.123338 10.35387,-4.909974 17.54206,-4.909974 8.57779,0 16.01035,3.440696 19.79867,9.165246 3.14084,4.746126 5.03091,4.599137 6.78915,-0.527986 0.72855,-2.124506 2.59773,-5.202181 4.15372,-6.839276 4.7153,-4.96107 8.03901,-6.195242 16.82908,-6.24903 7.06782,-0.04325 8.63189,0.300612 13.42289,2.951046 10.62457,5.877624 13.6511,13.280222 12.78577,31.272753 -0.89718,18.654714 -6.0767,32.001634 -17.79962,45.867244 -2.61758,3.09601 -2.64759,3.30249 -2.14279,14.74149 0.62819,14.23518 -0.63711,18.35327 -7.65652,24.91911 -8.94914,8.37087 -20.22906,8.60879 -30.78538,0.64932 -7.24295,-5.46119 -11.05641,-13.42951 -11.94046,-24.94992 l -0.65227,-8.5 -7.20913,-7 c -3.96502,-3.85 -8.98927,-9.7 -11.16499,-13 -3.7063,-5.62148 -4.17356,-5.97939 -7.40668,-5.67337 -6.27146,0.5936 -6.40734,1.13852 -4.57279,18.33794 0.89965,8.43449 1.63264,19.68362 1.62885,24.99806 -0.006,8.94771 -0.24826,10.12892 -3.26939,15.96496 -3.90012,7.53401 -9.95019,11.89817 -17.50026,12.62364 -7.80797,0.75025 -13.06454,-1.24018 -18.78833,-7.11429 -8.38985,-8.61019 -9.40036,-11.70265 -11.07066,-33.87966 -1.91518,-25.42829 -1.42062,-23.75728 -7.03127,-23.75728 -2.53821,0 -6.36814,-0.52527 -8.51095,-1.16727 -3.41296,-1.02255 -4.35728,-0.91005 -7.61602,0.90731 -2.046,1.14102 -5.6325,2.58364 -7.97,3.20582 -5.11742,1.36211 -5.11777,1.36503 -2.24168,18.55414 4.77675,28.54852 3.70301,39.07924 -4.85625,47.62787 -7.26281,7.25378 -16.5466,8.85238 -25.65207,4.41708 -5.95543,-2.9009 -7.26348,-3.94669 -10.68788,-8.54495 -4.22712,-5.67616 -5.67263,-11.86149 -7.29381,-31.21018 -1.66112,-19.82556 -2.23076,-21.36888 -7.43,-20.13003 -1.42357,0.3392 -2.85312,0.76115 -3.17678,0.93766 -0.32367,0.17651 -0.37921,7.20619 -0.12344,15.62151 0.41165,13.54404 0.21382,16.21629 -1.72326,23.27698 -2.56432,9.34703 -6.14486,15.92854 -12.74095,23.41957 -16.20369,18.40214 -45.17111,23.81015 -67.34639,12.57308 -5.15118,-2.6103 -5.68814,-2.44917 -8.36903,2.51141 -9.84421,18.21521 -36.20129,23.46353 -53.10082,10.57363 -1.85581,-1.4155 -3.83316,-2.57363 -4.39412,-2.57363 -0.56096,0 -1.96297,2.1319 -3.11557,4.73755 -2.85269,6.44898 -5.45007,9.02458 -12.49795,12.39315 -6.47964,3.09697 -12.64571,3.62425 -18.04679,1.54322 z m 6.64757,-8.80802 c 1.86957,-0.62376 4.91667,-2.53626 6.77133,-4.25 6.40722,-5.92039 8.32195,-13.57213 6.15976,-24.6159 -0.48456,-2.475 -0.52519,-4.86727 -0.0903,-5.31615 0.43491,-0.44889 2.98847,1.77283 5.67458,4.93715 7.48122,8.8131 11.32905,12.1111 18.07546,15.49263 5.64532,2.82962 6.88217,3.07181 14.01822,2.74491 6.80041,-0.31153 8.6109,-0.81971 13.80838,-3.87584 10.83359,-6.37017 13.28745,-16.06256 9.10987,-35.9827 -1.32646,-6.325 -4.28764,-20.95 -6.58041,-32.5 -6.34407,-31.95874 -6.76883,-33.39138 -11.23472,-37.89215 -4.44622,-4.48097 -5.71788,-4.2654 -3.23989,0.54922 l 1.72053,3.34293 -2.9945,-3.19272 c -3.54498,-3.77963 -6.64277,-4.72089 -13.40008,-4.0716 -3.73175,0.35858 -5.76085,1.21012 -8.03505,3.37202 -7.06036,6.71176 -7.25871,10.59254 -1.78339,34.8923 1.73499,7.7 3.37909,15.0125 3.65355,16.25 0.84372,3.80415 -1.27665,2.50502 -4.57715,-2.80438 -1.72809,-2.77991 -2.69536,-4.77835 -2.14948,-4.44098 0.54588,0.33737 0.9925,-0.0798 0.9925,-0.92714 0,-2.15481 -22.39395,-26.82544 -27.21512,-29.98195 -4.04758,-2.65003 -6.37808,-3.36439 -5.30348,-1.62565 0.32969,0.53345 -1.27533,0.30845 -3.56671,-0.5 -16.11478,-5.68562 -31.17825,7.06959 -28.03313,23.73747 0.54928,2.91095 5.0116,21.19494 9.91626,40.6311 8.14338,32.27048 9.17983,35.60072 11.93824,38.35913 4.06233,4.06233 10.3061,4.84186 15.90467,1.98569 4.81291,-2.45536 5.93329,-3.71917 7.79099,-8.78837 1.08765,-2.96793 1.44413,-3.3428 1.49782,-1.57509 0.11559,3.80543 -5.35275,10.73223 -9.91298,12.55687 -2.23137,0.89282 -5.14637,1.6233 -6.47778,1.6233 -2.49204,0 -3.97499,1.23046 -2.84493,2.36052 1.01422,1.01421 6.69359,0.74428 10.40693,-0.49462 z m 43.69137,-15.68618 c -0.93931,-0.37385 1.89208,-0.69223 6.29198,-0.70753 4.3999,-0.0153 7.19343,0.29058 6.20785,0.67972 -2.28178,0.90091 -10.26147,0.91866 -12.49983,0.0278 z m -7.69674,-2.26807 c -2.87422,-1.14937 -13.57642,-11.73592 -17.76191,-17.56995 -5.60442,-7.81184 -12.08582,-14.37397 -13.61684,-13.78646 -1.00644,0.3862 -1.68143,-0.32183 -2.14077,-2.24559 -0.36897,-1.54531 -0.90482,-3.59715 -1.19076,-4.55965 -1.12307,-3.78029 1.58829,-1.29398 10.16735,9.32339 16.44394,20.35091 17.91804,21.94789 23.94752,25.94384 5.66927,3.75722 5.93067,5.02795 0.59541,2.89442 z m 27.39536,-2.08305 c 3.02242,-2.37743 6.45262,-9.02847 6.48727,-12.5786 0.0121,-1.2375 0.47196,-2.25 1.02196,-2.25 2.69875,0 -0.28009,7.97154 -4.97849,13.32273 -1.77578,2.0225 -3.69276,3.67727 -4.25996,3.67727 -0.5672,0 0.21095,-0.97713 1.72922,-2.1714 z m -55.93521,-6.38415 c -0.37649,-2.00685 -0.45952,-3.87381 -0.18452,-4.14881 0.275,-0.275 0.80803,1.14196 1.18452,3.14881 0.37648,2.00684 0.45952,3.87381 0.18452,4.14881 -0.275,0.275 -0.80804,-1.14197 -1.18452,-3.14881 z m 61.99235,-18.94445 c -0.42926,-2.2 -1.62815,-8.21203 -2.66419,-13.36008 -1.83798,-9.1328 -2.29949,-12.89943 -1.47723,-12.05658 0.83553,0.85646 5.68077,26.2101 5.30907,27.7807 -0.21295,0.89978 -0.73839,-0.16404 -1.16765,-2.36404 z M 294.503,167.56002 c -0.93158,-5.85842 -7.55648,-35.49687 -8.73649,-39.08529 -1.66746,-5.07079 -1.32208,-7.31494 0.57909,-3.76259 1.56961,2.93285 9.25216,39.88117 8.71452,41.91151 -0.24261,0.91622 -0.49332,1.33759 -0.55712,0.93637 z m 62.9041,45.16849 c 13.83679,-3.81258 26.56194,-14.32966 32.09015,-26.52187 4.17372,-9.20495 5.31144,-19.18826 3.9724,-34.85728 -0.59546,-6.96783 -1.08265,-14.21927 -1.08265,-16.11432 v -3.44553 l 8.25,-0.0997 c 9.62248,-0.11626 13.25,-0.92264 13.25,-2.9454 0,-1.18728 -1.59366,-1.39273 -8.6633,-1.11686 -6.6268,0.25859 -9.50729,-0.0624 -12.25365,-1.36567 -1.9747,-0.93706 -4.4499,-1.47896 -5.50045,-1.20424 -2.04307,0.53428 -3.06052,-1.55714 -3.04937,-6.26815 0.006,-2.34487 0.22521,-2.23847 3.54,1.71476 4.36954,5.21111 7.64252,5.96287 18.56401,4.26389 9.48984,-1.47626 9.465,-1.49426 10.33324,7.48936 4.95563,51.27604 5.01932,51.67641 8.85172,55.64624 4.68501,4.85303 9.91816,8.88575 11.53079,8.88575 6.04661,0 13.52174,-5.08766 16.89655,-11.5 2.34919,-4.46362 1.86677,-15.17626 -1.66622,-37 -1.69172,-10.45 -3.26248,-19.79541 -3.49057,-20.76759 -0.6026,-2.56841 1.67773,-4.36014 6.53834,-5.13738 2.34593,-0.37513 7.11588,-2.0425 10.5999,-3.70527 5.81738,-2.77638 6.6381,-2.9228 10.0518,-1.79329 4.27395,1.41415 18.56259,1.32424 21.28723,-0.13394 2.39824,-1.2835 2.5572,-0.19614 3.95254,27.03747 0.60587,11.825 1.54573,23.20513 2.0886,25.28917 2.04024,7.83245 8.88586,12.13088 17.74828,11.1443 3.07587,-0.34241 3.25279,-0.26781 1.14056,0.48095 -1.375,0.48742 -3.9625,0.93108 -5.75,0.9859 -3.87306,0.11879 -4.30121,1.79774 -0.6896,2.7042 7.68039,1.92765 16.55537,-2.50973 20.05612,-10.02781 2.96623,-6.37015 2.95696,-9.00679 -0.11652,-33.17519 -1.375,-10.81234 -2.5,-21.60552 -2.5,-23.98485 0,-4.22906 0.0841,-4.33906 3.75,-4.90683 2.0625,-0.31944 6.225,-1.05315 9.25,-1.63047 3.025,-0.57733 6.148,-1.12386 6.93999,-1.21453 0.83907,-0.0961 2.85622,2.54768 4.8337,6.33516 5.56152,10.65203 15.44853,22 19.16767,22 2.24083,0 0.86366,-1.93297 -4.02001,-5.64243 -5.61276,-4.26326 -11.93169,-13.20688 -16.77996,-23.74985 -2.92964,-6.37074 -3.30083,-6.77773 -4.90543,-5.3785 -3.08867,2.69337 -6.36219,3.95855 -13.6192,5.26367 -3.91422,0.70395 -7.96566,1.62773 -9.00321,2.05286 -1.38749,0.56851 -1.7628,0.402 -1.41896,-0.62952 0.30229,-0.90685 3.29036,-1.80369 8.45538,-2.5378 4.39334,-0.62442 8.99493,-1.75252 10.22575,-2.50687 7.67404,-4.703302 9.32453,-20.576997 2.77891,-26.726288 -1.30231,-1.223459 -3.92051,-2.476435 -5.81823,-2.784392 -3.48222,-0.565087 -35.01226,2.524918 -53.15908,5.209693 -11.34915,1.679078 -14.33991,2.983575 -18.54989,8.091009 l -3.05258,3.703298 -2.05306,-2.610047 c -3.44408,-4.378445 -7.36827,-5.047508 -19.15503,-3.265884 -5.70172,0.861841 -13.74176,2.033391 -17.86676,2.603444 -15.87104,2.193293 -34.52559,6.030682 -37.34519,7.682201 -4.37372,2.561811 -6.99464,6.671286 -7.64642,11.989226 l -0.58048,4.73618 -2.76206,-5.69817 c -5.27092,-10.874001 -16.86861,-13.733908 -24.86677,-6.13196 -6.40849,6.09103 -7.04273,10.61048 -3.86339,27.52937 4.50147,23.95459 5.26962,36.56928 2.54738,41.8335 -4.02843,7.79013 -13.36587,7.37519 -18.56632,-0.82507 -4.39229,-6.92592 -4.54023,-7.68 -8.34853,-42.55525 -1.58685,-14.53186 -2.54052,-16.33071 -10.21077,-19.26001 -5.62679,-2.14889 -11.37875,-1.37628 -16.00099,2.14928 -6.84889,5.2239 -7.73259,11.94891 -4.39659,33.45831 4.80122,30.95671 7.41996,39.27566 15.96407,50.71301 2.72968,3.65401 5.458,5.73371 11.52745,8.78699 7.90517,3.97675 8.01852,4 19.5,4 11.23591,0 11.75169,-0.0984 19.04861,-3.6329 16.35185,-7.92064 24.22807,-20.87443 26.36824,-43.3671 0.20932,-2.2 0.25511,0.05 0.10174,5 -0.7093,22.89313 -13.34706,38.34815 -35.96998,43.98858 -12.44693,3.10332 -23.90473,0.72801 -36.25,-7.51495 -4.60557,-3.07515 -4.02647,-1.15209 1.19674,3.9741 8.61448,8.45448 23.48283,11.1493 38.57336,6.99127 z m 89.12893,-25.9267 c 1.2149,-1.64323 2.41432,-2.78228 2.6654,-2.53121 0.6835,0.68351 -2.70494,5.51891 -3.86742,5.51891 -0.55379,0 -0.0129,-1.34446 1.20202,-2.9877 z m 3.512,-14.0123 c -0.44948,-3.575 -1.69622,-12.29836 -2.77053,-19.38526 -1.07432,-7.08689 -1.757,-13.08157 -1.51706,-13.3215 1.04665,-1.04666 5.81725,29.68115 5.42414,34.9373 -0.29695,3.97038 -0.37657,3.81412 -1.13655,-2.23054 z m 79.37224,2.85921 c -0.0183,-0.35244 0.85685,-2.60244 1.94477,-5 1.71464,-3.77872 1.98096,-4.00776 2,-1.71999 0.0181,2.17864 -3.83938,8.74997 -3.94477,6.71999 z m 2.96673,-17.35921 c 0,-2.65833 0.18307,-4.64583 0.40681,-4.41666 0.77332,0.79206 1.03132,7.81186 0.3135,8.52969 -0.39617,0.39617 -0.72031,-1.45469 -0.72031,-4.11303 z m -143.768,-9.5 c 0,-1.925 0.2058,-2.7125 0.45733,-1.75 0.25152,0.9625 0.25152,2.5375 0,3.5 -0.25153,0.9625 -0.45733,0.175 -0.45733,-1.75 z m 142.9259,0 c 0,-1.375 0.22697,-1.9375 0.50438,-1.25 0.27741,0.6875 0.27741,1.8125 0,2.5 -0.27741,0.6875 -0.50438,0.125 -0.50438,-1.25 z m -143.90572,-7.5 c 0.0111,-2.2 0.21589,-2.98225 0.45508,-1.73834 0.2392,1.24391 0.23011,3.04391 -0.0202,4 -0.25029,0.95609 -0.44599,-0.0617 -0.4349,-2.26166 z m 142.94277,-2 c 0.0204,-1.65 0.2445,-2.20393 0.49804,-1.23097 0.25355,0.97297 0.23687,2.32297 -0.037,3 -0.27392,0.67704 -0.48137,-0.11903 -0.46099,-1.76903 z m -86.03705,-5.5 c 0,-1.375 0.22697,-1.9375 0.50438,-1.25 0.27741,0.6875 0.27741,1.8125 0,2.5 -0.27741,0.6875 -0.50438,0.125 -0.50438,-1.25 z m -1.56172,-8.94318 c -0.73043,-3.87631 -0.57146,-4.65842 1.24603,-6.13013 1.1458,-0.92781 4.68754,-2.00417 7.87053,-2.3919 9.11576,-1.11044 14.10234,-3.74193 16.09921,-8.49579 0.92843,-2.21026 1.98885,-4.02323 2.35649,-4.02883 0.36764,-0.006 1.66212,1.59763 2.87661,3.56272 3.00943,4.86937 5.80327,5.71413 16.20495,4.8998 6.13936,-0.48063 8.75,-0.35498 8.75,0.42115 0,1.73459 -17.31385,1.4197 -21.65424,-0.39384 -4.94905,-2.06784 -5.93184,-1.9263 -10.1544,1.46246 -3.40498,2.73264 -5.55704,3.43237 -18.19136,5.91482 -3.26258,0.64104 -3.53617,0.99075 -4.03328,5.15521 l -0.53328,4.46751 z m 168.13847,49.28363 c 5.63289,-4.53903 6.57806,-8.40326 5.87757,-24.02982 l -0.59124,-13.18938 3.10858,-2.2135 c 3.69072,-2.62803 10.98257,-13.58115 13.80003,-20.7291 3.36683,-8.54172 5.07041,-17.843445 5.07041,-27.684937 0,-8.451173 -0.2372,-9.657942 -2.39034,-12.161122 l -2.39034,-2.778939 0.4886,10.973175 c 0.6103,13.706156 -1.05502,22.146683 -6.57504,33.325103 -2.22524,4.50623 -6.53327,11.12515 -9.57341,14.70869 l -5.52752,6.51554 0.46651,7.71192 0.46651,7.71192 -1.49843,-8.44151 -1.49843,-8.4415 3.29724,-3.5585 c 12.57277,-13.56893 18.34909,-26.68461 19.41659,-44.087194 0.51892,-8.459546 0.34404,-10.00004 -1.55853,-13.729393 -2.62854,-5.152356 -6.42839,-7.2419 -13.16946,-7.2419 -5.53876,0 -9.78775,1.902967 -11.93846,5.346806 -0.72606,1.16261 -1.85166,7.864858 -2.50132,14.893886 -1.09301,11.825799 -1.40335,13.054515 -4.15631,16.455885 -1.63631,2.02171 -3.51841,3.85694 -4.18245,4.07829 -1.94527,0.64842 -6.90435,-5.44106 -8.59604,-10.555472 -1.64715,-4.979772 -3.26952,-15.087475 -2.27827,-14.194085 0.32057,0.288921 1.04515,3.395909 1.61018,6.904418 1.08839,6.75826 5.03945,14.070269 7.60291,14.070269 2.04666,0 1.86066,-2.54877 -0.42256,-5.79049 -1.0496,-1.490229 -2.65847,-6.211294 -3.57527,-10.491254 -1.07433,-5.015387 -2.51765,-8.748069 -4.06003,-10.5 -1.98609,-2.255921 -2.3985,-2.410568 -2.42473,-0.909236 -0.0376,2.151601 -1.57709,1.408763 -3.14255,-1.516341 -0.95671,-1.787627 -0.87632,-2.001768 0.54656,-1.455761 1.0054,0.385809 1.419,0.236851 1.04092,-0.37489 -0.34504,-0.558286 -1.15591,-0.925756 -1.80194,-0.8166 -0.64602,0.109157 -3.74287,-0.153358 -6.88187,-0.583365 -4.82195,-0.660552 -6.37318,-0.452285 -10,1.342587 -5.89668,2.918204 -8.10883,6.317398 -8.60871,13.228199 -0.52331,7.234755 3.2472,20.944241 8.27694,30.094731 3.43941,6.25724 12.99877,17.14514 16.98849,19.34952 1.7375,0.95999 1.98542,2.41231 2.28044,13.35852 0.35497,13.17104 1.09578,15.69684 5.93085,20.22121 6.1278,5.73405 14.92426,5.45818 21.04235,-0.6599 3.73393,-3.73393 4.39127,-3.15788 1.12902,0.98939 -2.61268,3.32149 -7.50306,5.51368 -12.29998,5.51368 -3.40563,0 -4.35561,0.82946 -2.78212,2.42916 0.4125,0.41938 3.33059,0.57866 6.48465,0.35397 4.52663,-0.32247 6.52782,-1.04768 9.5,-3.44268 z m 1.40592,-13.34045 c 0,-1.925 0.38675,-4.4 0.85943,-5.5 0.69649,-1.62082 0.85943,-1.33643 0.85943,1.5 0,1.925 -0.38674,4.4 -0.85943,5.5 -0.69649,1.62082 -0.85943,1.33644 -0.85943,-1.5 z m -272.26124,6.25 c -1.19931,-3.42581 -3.0015,-14.23835 -4.45859,-26.75 -2.50109,-21.47616 -3.81452,-26.57001 -7.33711,-28.45524 -1.95795,-1.04787 -1.97037,-0.97521 -0.53079,3.10499 0.81073,2.29788 2.13286,10.29173 2.93805,17.76411 3.25816,30.23657 4.4673,36.24302 7.7603,38.54953 3.52597,2.46968 3.75775,1.86986 1.62814,-4.21339 z m 11.80682,-14.16408 c -0.33566,-4.35274 -1.26565,-9.41524 -2.06665,-11.25 l -1.45635,-3.33592 -0.0816,6.20078 c -0.0963,7.31981 1.6388,16.29922 3.1495,16.29922 0.71547,0 0.86493,-2.59913 0.45507,-7.91408 z M 650.787,152.38951 c -2.89504,-2.89504 -3.4,-4.09293 -3.4,-8.06574 0,-6.18496 0.99573,-7.77363 7.77395,-12.40315 21.27916,-14.53368 43.22605,-43.829714 43.22605,-57.700739 0,-7.140235 -5.29362,-14.406133 -9.35909,-12.846065 -1.24309,0.477017 -1.64091,1.949189 -1.64091,6.072345 0,12.610932 -8.47631,17.481941 -20.49596,11.778242 -4.7814,-2.268922 -11.13103,-11.764679 -12.07469,-18.057492 -1.19442,-7.96495 -0.0184,-14.80094 3.91565,-22.760955 4.39239,-8.887401 10.76545,-15.067648 20.46478,-19.845627 8.7522,-4.311417 20.67902,-5.096818 29.05696,-1.913449 8.81386,3.349003 15.99869,8.286496 20.25108,13.916769 25.20355,33.370094 12.38338,79.685851 -30.0247,108.471001 -8.59715,5.83545 -25.50099,14.02292 -32.28594,15.63788 -8.3545,1.98854 -11.61942,1.50475 -15.40718,-2.28302 z m 18.19221,-4.09915 c 4.09467,-1.37453 9.12401,-3.52797 11.17632,-4.78542 2.05231,-1.25745 4.87107,-2.77858 6.26392,-3.38029 9.98945,-4.31543 27.92035,-19.67095 36.72015,-31.44611 5.89932,-7.89397 12.90646,-25.650448 9.22423,-23.374704 -0.97547,0.602873 -1.12986,0.209057 -0.63038,-1.607951 3.13198,-11.393446 3.93254,-19.136767 2.80374,-27.118748 -1.15905,-8.195917 -5.09423,-18.358435 -9.06214,-23.402822 -3.83659,-4.87743 -11.67153,-10.12395 -18.46395,-12.364038 -14.10396,-4.651379 -27.69467,-0.985111 -38.42999,10.366984 -6.26328,6.623117 -9.2148,12.748869 -9.92699,20.603044 -0.93018,10.258228 3.98361,18.922547 11.94777,21.067072 2.08181,0.560573 3.78511,1.451879 3.78511,1.98068 0,1.754743 4.6602,0.994416 6.52331,-1.064301 1.39827,-1.545068 1.79413,-3.446522 1.66827,-8.013278 -0.2001,-7.260162 1.7975,-9.960965 7.36744,-9.960965 2.11803,0 3.30878,-0.404883 2.94098,-1 -0.33992,-0.55 0.0411,-1 0.84675,-1 1.98141,0 7.46085,8.457497 8.26844,12.762309 0.35853,1.911148 0.37961,6.390521 0.0468,9.954162 -1.14455,12.25665 -9.4839,26.097606 -25.38761,42.136246 -5.92593,5.9762 -13.57613,12.7386 -17.00046,15.02755 -3.42433,2.28895 -6.71176,5.06928 -7.3054,6.17851 -2.42786,4.53648 2.13633,8.58198 8.45518,7.49429 l 3.07627,-0.52953 -2.75,1.07156 c -2.99334,1.16639 -3.69734,2.9049 -1.17632,2.9049 0.86553,0 4.92387,-1.12462 9.01853,-2.49915 z m 4.40779,-5.97517 c 0,-0.55612 4.87562,-3.14769 8.55036,-4.54482 3.86982,-1.47131 2.04622,0.67414 -2.57837,3.03343 -3.77865,1.92773 -5.97199,2.48282 -5.97199,1.51139 z m 20.08333,-10.80865 c 0.22917,-0.15563 1.31667,-0.94313 2.41667,-1.75 1.85001,-1.357 1.89707,-1.33578 0.62756,0.28297 -0.75485,0.9625 -1.84235,1.75 -2.41667,1.75 -0.57432,0 -0.85672,-0.12733 -0.62756,-0.28297 z m 25.77384,-24.46703 c 1.25346,-1.7875 2.48921,-3.25 2.74611,-3.25 0.86428,0 -1.47746,3.65114 -3.25961,5.08225 -1.25267,1.00591 -1.1035,0.47367 0.5135,-1.83225 z m 5.14283,-7.936423 c 0,-0.512223 0.66069,-1.804823 1.4682,-2.872445 1.23344,-1.630755 1.47328,-1.680894 1.5,-0.313574 0.0175,0.895155 -0.6432,2.187755 -1.4682,2.872445 -0.825,0.684689 -1.5,0.825797 -1.5,0.313574 z M 678.41763,59.789513 c 0,-0.825 0.43622,-2.175 0.96937,-3 0.86167,-1.333334 0.96938,-1.333334 0.96938,0 0,0.825 -0.43622,2.175 -0.96938,3 -0.86166,1.333333 -0.96937,1.333333 -0.96937,0 z"
         id="path3" />
      <path
         style="display:inline;fill:#5d291a"
         d="m 221.887,246.92069 c -4.30645,-1.9647 -10.83738,-8.08062 -12.95437,-12.13118 -1.13269,-2.16723 -9.8196,-36.08959 -17.98198,-70.21956 -3.86419,-16.15762 -3.12499,-23.42809 3.12429,-30.72896 5.08084,-5.93583 10.55059,-8.69723 19.526,-9.85771 12.03919,-1.55662 17.98686,0.34201 27.95711,8.92453 7.61063,6.55133 8.5066,6.40532 9.35582,-1.52464 0.75094,-7.01214 3.21084,-11.90441 7.97313,-15.85705 6.84271,-5.67936 20.17949,-7.42629 28.35921,-3.71465 5.83345,2.647 6.47089,2.54512 9.58003,-1.53119 4.3081,-5.6482 9.69746,-7.89348 19.06076,-7.94096 13.03409,-0.0661 21.15177,4.90927 27.07224,16.59275 1.3538,2.67159 2.90387,4.85744 3.44461,4.85744 0.551,0 0.98315,-3.09103 0.98315,-7.03212 0,-10.83298 3.33085,-17.024929 11.37761,-21.150618 5.79083,-2.969047 13.5628,-3.454733 20.70049,-1.293614 l 5.98733,1.812819 5.71729,-2.643577 c 3.1445,-1.453967 7.96728,-2.925703 10.71728,-3.270525 2.75,-0.344821 12.875,-1.957832 22.5,-3.584469 9.625,-1.626637 21.31412,-3.600374 25.97583,-4.386083 7.56829,-1.2756 9.08721,-1.257014 14.18585,0.17359 5.46788,1.534211 5.82935,1.518402 8.52417,-0.37282 4.05718,-2.847326 8.56157,-4.071037 19.31415,-5.247094 5.225,-0.571482 18.93268,-2.205543 30.4615,-3.631248 18.53625,-2.292274 21.5847,-2.442688 26.34782,-1.300033 4.22223,1.012896 5.74339,1.031066 7.0385,0.08407 4.86796,-3.55948 10.91827,-5.466602 17.64033,-5.560418 5.96714,-0.08328 7.78761,0.332035 12.21854,2.787494 2.98857,1.656156 6.29622,4.531745 7.76419,6.75 3.49106,5.275358 5.92315,5.100621 7.50215,-0.539005 2.32223,-8.294196 10.49025,-13.630302 20.74485,-13.552458 6.89265,0.05232 11.64351,1.604493 16.68818,5.45225 7.39791,5.64266 10.09093,15.655126 8.56079,31.828383 -1.38807,14.671556 -6.96093,28.551546 -15.97123,39.778596 -4.54457,5.66263 -5.03114,6.72939 -4.50321,9.87274 0.32553,1.93828 0.65645,7.12414 0.73538,11.52414 0.17446,9.72632 -1.95937,15.2454 -7.9968,20.68346 -11.74241,10.57668 -29.305,6.08761 -37.35593,-9.54832 -2.46295,-4.78336 -3.12754,-7.52762 -3.604,-14.88178 -0.55286,-8.53352 -0.75001,-9.15685 -3.67762,-11.62705 -6.19178,-5.2244 -13.73986,-13.73643 -16.29525,-18.37631 -2.25057,-4.0864 -3.04788,-4.74809 -5.70712,-4.73634 -4.7312,0.0209 -7.4681,1.02355 -8.08309,2.9612 -0.30704,0.9674 0.17152,7.78131 1.06347,15.14203 1.93485,15.96717 2.176,34.18324 0.50814,38.38311 -3.73375,9.40204 -12.1167,15.5 -21.30805,15.5 -9.14113,0 -16.17517,-4.7465 -21.94074,-14.80538 -2.7333,-4.76863 -3.17902,-6.79208 -4.40559,-20 -0.75055,-8.08204 -1.37826,-17.47497 -1.39492,-20.87319 -0.0378,-7.7215 -1.40281,-9.32143 -7.95249,-9.32143 -2.62865,0 -6.2273,-0.50475 -7.99701,-1.12168 -2.79625,-0.97478 -3.8308,-0.79237 -7.89922,1.39278 -2.57486,1.38295 -6.17447,2.83014 -7.99914,3.21598 -1.82466,0.38583 -3.56927,1.35744 -3.87691,2.15914 -0.30764,0.80169 0.67767,9.31221 2.18958,18.91226 4.25507,27.01821 3.02946,37.872 -5.15352,45.63847 -6.98411,6.62864 -17.07726,7.6602 -26.38905,2.69707 -10.73398,-5.72116 -13.49878,-12.29203 -15.52374,-36.89402 -1.91992,-23.3259 -1.49925,-22 -6.98006,-22 -5.77578,0 -6.17338,1.03228 -5.28411,13.71873 1.50803,21.51352 -2.16602,34.96939 -13.15295,48.17153 -15.74422,18.9186 -45.40774,25.47842 -66.1555,14.62971 -6.69736,-3.50195 -7.96239,-3.26872 -10.74761,1.98146 -3.02854,5.70886 -9.9104,12.08103 -15.91678,14.73794 -5.81779,2.57348 -16.37424,3.39614 -23.04491,1.79587 -2.79152,-0.66968 -8.02613,-2.99721 -11.63246,-5.17229 -3.60633,-2.17507 -6.96834,-3.70044 -7.47113,-3.38969 -0.5028,0.31074 -2.01386,2.96701 -3.35792,5.90283 -5.19506,11.3475 -19.91598,16.89645 -31.18536,11.75509 z m 8.60078,-6.29741 c 11.35014,-3.89409 17.06747,-15.79095 13.97947,-29.08909 -0.47961,-2.06543 -0.49249,-3.9899 -0.0286,-4.27659 0.46388,-0.2867 2.69757,1.93453 4.96374,4.93606 4.24782,5.6262 11.85462,12.02793 17.97665,15.12879 5.09189,2.57908 15.62758,3.0946 21.62421,1.05807 7.2295,-2.45522 12.58493,-6.54274 15.20547,-11.60554 2.1541,-4.16167 2.28169,-5.31563 1.7675,-15.98547 -0.30481,-6.325 -0.82337,-13.3 -1.15235,-15.5 -0.5755,-3.84845 -0.43147,-3.71584 3.80155,3.5 2.61527,4.45813 4.06757,7.94708 3.58078,8.60231 -1.16313,1.56562 2.89542,7.1969 7.98434,11.07835 5.33801,4.07143 15.60705,7.31934 23.14184,7.31934 19.18972,0 39.48907,-12.65423 47.05036,-29.3303 4.96907,-10.95904 5.64887,-23.7567 2.7181,-51.1697 -0.19545,-1.82807 0.55983,-2.05311 8.78617,-2.6179 4.95,-0.33985 10.16282,-0.93239 11.58405,-1.31676 l 2.58405,-0.69885 1.74432,19.81676 c 2.50639,28.47439 3.56093,33.30128 8.74275,40.01788 4.83189,6.26302 7.67116,7.72209 13.29865,6.83401 5.56304,-0.87791 9.91089,-3.86056 13.4781,-9.24606 2.77923,-4.19588 3.06808,-5.3814 3.06808,-12.59214 0,-6.84096 -3.10365,-30.04163 -5.9771,-44.68052 -1.07317,-5.46731 -0.31374,-6.55439 5.19418,-7.43514 2.29863,-0.36756 7.02989,-2.02875 10.51391,-3.69152 5.75554,-2.74687 6.6651,-2.91414 9.95026,-1.82994 2.26566,0.74773 7.22357,1.01955 13.27851,0.72798 l 9.66284,-0.4653 1.57263,25.09307 c 1.66653,26.59137 2.39637,30.10114 7.17589,34.50875 1.44589,1.33337 2.62888,3.00931 2.62888,3.72432 0,0.715 1.42452,2.03665 3.1656,2.937 7.26497,3.75686 18.67174,-0.61342 23.06465,-8.83675 2.88885,-5.40781 2.85217,-15.54355 -0.1366,-37.74889 -1.14744,-8.525 -2.08791,-17.40392 -2.08995,-19.73095 -0.004,-4.69431 -0.61315,-4.33885 10.4963,-6.12607 3.3,-0.53088 6.6613,-1.11773 7.46955,-1.30411 0.95042,-0.21916 2.72749,2.03385 5.03047,6.37777 6.62577,12.49758 19.11312,24.5942 22.49298,21.78917 1.32756,-1.10177 1.507,0.0957 1.507,10.05602 0,12.76504 1.75067,18.20032 7.08583,21.99929 1.60279,1.14129 2.91417,2.88983 2.91417,3.88566 0,5.07821 13.61223,5.32266 19.78937,0.35538 6.11982,-4.92119 6.71063,-6.98174 6.71063,-23.40426 v -14.6021 l 3.17851,-2.67664 c 3.79043,-3.19194 10.61872,-13.73296 13.19235,-20.36542 3.74564,-9.65283 5.33902,-18.793686 4.97704,-28.552119 -0.30987,-8.353438 -0.65588,-9.82265 -3.16558,-13.441505 -2.97848,-4.294803 -2.82378,-4.239099 -16.29435,-5.867079 -3.75908,-0.454301 -6.05936,-0.168275 -8.69144,1.08073 -5.68465,2.697544 -6.87581,5.468805 -7.73563,17.997125 -0.41975,6.116078 -1.42056,12.67466 -2.22402,14.574626 -1.77806,4.204602 -5.18275,7.414982 -6.80228,6.414062 -0.86388,-0.53391 -0.74375,-0.98688 0.43699,-1.64765 2.14894,-1.20261 2.05691,-3.28813 -0.29134,-6.60242 -1.05586,-1.490229 -2.65192,-6.040948 -3.54681,-10.112709 -1.90899,-8.686045 -2.7484,-10.513381 -6.79344,-14.78886 -3.01122,-3.182765 -3.04469,-3.190856 -11.49017,-2.777714 -10.15145,0.496595 -13.66336,2.220165 -16.86674,8.277845 -2.15526,4.075666 -2.31943,4.179399 -3.40479,2.151388 -0.62718,-1.171913 -0.87955,-2.391543 -0.5608,-2.710291 1.39771,-1.397713 -10.04585,-4.291101 -14.9175,-3.771737 -58.29706,6.215009 -59.50122,6.448163 -65.35394,12.654107 -2.05889,2.183138 -3.43527,2.977702 -3.9114,2.257996 -1.48482,-2.244369 -7.26187,-4.389532 -11.82128,-4.389532 -8.66059,0 -59.29821,8.470164 -63.61169,10.640339 -3.58363,1.802978 -7.62619,7.232148 -8.44922,11.347338 l -0.66414,3.32066 -1.96289,-4.17062 c -3.02783,-6.433308 -6.86679,-8.637717 -15.04249,-8.637717 -6.80862,0 -6.82245,0.0057 -11.17984,4.617527 -5.61446,5.9423 -6.2558,9.36104 -4.08076,21.75302 3.82051,21.76683 5.73567,37.59003 5.0794,41.96636 -0.77892,5.19419 -5.03018,10.16937 -8.67483,10.152 -1.91294,-0.009 -2.82946,-1.18745 -5.15168,-6.62333 -2.3592,-5.52244 -3.22938,-10.17665 -5.2797,-28.23891 -1.35022,-11.89467 -2.94416,-22.85931 -3.54209,-24.36587 -1.45146,-3.65713 -8.77333,-10.24092 -10.01174,-9.00251 -0.59388,0.59389 -2.96714,0.3827 -6.3827,-0.56798 -12.81073,-3.56568 -22.316,4.80647 -22.49082,19.80969 l -0.0757,6.5 -1.76829,-5.5 c -2.4951,-7.76066 -3.47598,-9.2788 -8.03744,-12.4399 -2.72863,-1.89094 -4.60749,-2.55332 -5.80977,-2.04819 -0.97732,0.4106 -3.69177,0.65427 -6.03212,0.54148 -6.15509,-0.29665 -10.62764,1.52106 -14.62235,5.94273 -5.11684,5.66373 -5.31891,8.64648 -1.77565,26.21064 1.68773,8.36613 2.95056,15.32919 2.80629,15.47345 -0.14426,0.14427 -3.16273,-3.19598 -6.70771,-7.42277 -12.43269,-14.8239 -17.48884,-20.11698 -22.50031,-23.55469 -4.94496,-3.39209 -5.24944,-3.46192 -14,-3.21101 -9.934,0.28485 -12.55683,1.04851 -17.29532,5.03568 -4.69263,3.94859 -7.14978,9.39909 -7.14978,15.85979 0,5.03258 16.18061,72.71068 19.06567,79.74531 0.59381,1.44789 2.34566,3.84544 3.893,5.32789 1.66838,1.59841 2.62832,3.40296 2.35869,4.43403 -0.91035,3.48116 7.1772,5.20584 13.78342,2.93933 z m 2.94506,-54.74812 c -0.6143,-1.14783 -0.69884,-2.08565 -0.18801,-2.08565 1.02776,0 2.44663,3.02888 1.74673,3.72878 -0.24338,0.24338 -0.94481,-0.49603 -1.55872,-1.64313 z m 26.03518,-17.93426 c -1.31201,-2.45151 -1.3559,-3.15139 -0.19765,-3.15139 0.91038,0 2.33435,4.11562 1.65799,4.79198 -0.20863,0.20862 -0.86578,-0.52964 -1.46034,-1.64059 z m 35.07688,-31.15139 c 0,-1.375 0.22697,-1.9375 0.50438,-1.25 0.27741,0.6875 0.27741,1.8125 0,2.5 -0.27741,0.6875 -0.50438,0.125 -0.50438,-1.25 z M 412.1995,125.1064 c 0.72188,-0.28887 1.58438,-0.25335 1.91667,0.079 0.33229,0.33229 -0.25834,0.56864 -1.3125,0.52522 -1.16494,-0.048 -1.4019,-0.28495 -0.60417,-0.60417 z m -26.4431,-2.79663 c -0.84418,-2.19989 0.0836,-2.88425 1.53666,-1.13345 0.81795,0.98558 0.86038,1.63951 0.13544,2.08755 -0.58059,0.35882 -1.33304,-0.0705 -1.6721,-0.9541 z m 83.31618,-14.27026 c 1.10488,-3.10455 1.54791,-3.48958 2.42411,-2.10676 1.43916,2.27129 0.99588,3.85676 -1.0783,3.85676 -1.44547,0 -1.80311,-0.46505 -1.34581,-1.75 z m 85.9528,-5.75 c -0.31659,-0.825 -1.26473,-1.5 -2.10699,-1.5 -1.85238,0 -1.87504,-0.75176 -0.11822,-3.92292 1.47097,-2.655197 1.50336,-2.610332 3.01294,4.17292 0.65515,2.94393 0.16236,3.72591 -0.78773,1.25 z M 352.726,154.04129 c -0.14374,-7.18304 -3.03881,-21.10605 -5.18673,-24.94417 -1.06974,-1.91152 -0.36293,17.82923 0.91807,25.64129 1.19564,7.29149 1.63162,8.32468 3.2713,7.75235 0.76709,-0.26775 1.10398,-3.1218 0.99736,-8.44947 z m 28.661,-54.251777 c 0,-0.55 -0.45,-1 -1,-1 -0.55,0 -1,0.45 -1,1 0,0.549997 0.45,0.999997 1,0.999997 0.55,0 1,-0.45 1,-0.999997 z m 269.97429,52.128137 c -6.21114,-6.21114 -4.68186,-13.44738 4.06727,-19.24548 6.85337,-4.54177 27.17802,-24.57292 32.3498,-31.88266 6.54062,-9.244434 10.92247,-19.670354 10.92738,-25.999997 0.007,-9.061025 -5.48847,-16.585083 -10.25168,-14.035889 -1.75673,0.940173 -2.06706,2.060947 -2.06706,7.465317 0,5.637169 -0.32935,6.711632 -2.90121,9.464816 -5.97922,6.400783 -17.69927,2.995365 -23.72715,-6.894244 -6.57326,-10.78437 -6.48068,-20.291008 0.32367,-33.239723 4.34019,-8.259388 10.0721,-13.547617 20.0055,-18.456973 6.43338,-3.179549 8.29798,-3.639299 15.07047,-3.715895 21.40925,-0.242133 39.93546,17.001001 44.25894,41.193679 1.82272,10.199328 0.78723,24.947126 -2.38843,34.016904 -6.29771,17.986465 -22.09027,37.111435 -40.22345,48.711095 -8.22246,5.25984 -22.08447,12.05395 -28.34984,13.89494 -8.58286,2.52195 -13.67655,2.14177 -17.09421,-1.27589 z m 17.99478,-2.68501 c 17.16331,-6.19115 33.76692,-17.05958 45.53408,-29.80579 8.02387,-8.69146 14.48209,-17.09489 14.49257,-18.8577 0.002,-0.3962 1.07648,-3.096202 2.38694,-6.000002 3.81634,-8.456444 3.97999,-9.542483 3.73402,-24.779635 -0.26589,-16.471418 -1.04976,-21.02865 -5.07416,-29.5 -4.70967,-9.913829 -11.90637,-16.168433 -23.15273,-20.121877 -6.11797,-2.150654 -8.52904,-2.504683 -14.0093,-2.057052 -9.84846,0.804427 -18.05909,4.912225 -25.13909,12.577147 -6.74452,7.301736 -8.07528,9.651832 -9.75647,17.229812 -2.45712,11.075454 1.02588,19.662473 10.73111,26.456522 4.85534,3.39894 5.36958,3.542295 8.72929,2.43349 4.55048,-1.501795 5.55467,-3.468866 5.55467,-10.880872 0,-8.847689 3.1963,-11.042233 11.20748,-7.694945 4.36522,1.823904 5.31806,3.014861 6.77721,8.470861 4.37216,16.348247 -13.04672,44.282601 -40.62218,65.145091 -5.02562,3.80218 -9.4005,7.59844 -9.72195,8.43612 -0.73128,1.9057 0.79541,6.07166 2.62941,7.17499 0.75947,0.45689 1.6703,1.61821 2.02406,2.58071 0.91315,2.48446 5.26205,2.22786 13.67504,-0.80687 z"
         id="path2" />
    </g>
  </g>
</svg>
